<?xml version="1.0" encoding="UTF-8"?>
<svg version="1.1" xmlns="http://www.w3.org/2000/svg" width="230" height="230">
<path d="M0 0 C1.33438362 -0.00744736 1.33438362 -0.00744736 2.69572449 -0.01504517 C5.647662 -0.02968655 8.59954577 -0.03647236 11.55151367 -0.04199219 C13.59933982 -0.04774237 15.64716595 -0.05350012 17.69499207 -0.05926514 C21.99327852 -0.06978099 26.29154624 -0.07561971 30.58984375 -0.07910156 C36.09801029 -0.08458505 41.60592947 -0.1086076 47.11401844 -0.13707352 C51.34592919 -0.1556969 55.57778035 -0.16090536 59.80972862 -0.16243744 C61.84031208 -0.16546558 63.87089445 -0.17349951 65.90143776 -0.18662262 C68.74307688 -0.20367541 71.58411173 -0.2018046 74.42578125 -0.1953125 C75.68450546 -0.20913467 75.68450546 -0.20913467 76.96865845 -0.22323608 C81.57093914 -0.19029521 84.71711145 0.0907091 88.40698242 3.16113281 C89.7006685 7.04219105 89.57091266 10.72989008 89.58398438 14.77587891 C89.59055557 15.65586044 89.59712677 16.53584198 89.60389709 17.44248962 C89.62361914 20.35651737 89.63528901 23.27049367 89.64526367 26.18457031 C89.6493392 27.17954151 89.65341473 28.17451271 89.65761375 29.19963455 C89.67846778 34.46381676 89.69277356 39.72797293 89.70214844 44.9921875 C89.7132238 50.43201987 89.74763869 55.87144442 89.78732014 61.31113243 C89.81344583 65.49242928 89.82183658 69.67362824 89.82542992 73.85499954 C89.83030474 75.86047756 89.84194411 77.86595095 89.86046791 79.87134933 C89.88477777 82.67709619 89.8839095 85.48177805 89.87695312 88.28759766 C89.88976318 89.11582535 89.90257324 89.94405304 89.91577148 90.79737854 C89.87997668 94.75751906 89.68401453 96.71426136 87.54753113 100.16055298 C84.7488525 102.77622811 83.22396318 103.02481207 79.40698242 103.16113281 C76.53763936 102.95762307 73.73897095 102.53420452 70.90698242 102.03613281 C70.11235596 101.8970752 69.31772949 101.75801758 68.49902344 101.61474609 C51.02350698 98.35508245 33.53842112 90.27565874 20.40698242 78.16113281 C19.5175293 77.35160156 18.62807617 76.54207031 17.71166992 75.70800781 C0.6451505 59.44965227 -12.23198575 36.96921558 -13.79614258 13.05566406 C-13.81161133 12.03859375 -13.82708008 11.02152344 -13.84301758 9.97363281 C-13.86879883 8.94882813 -13.89458008 7.92402344 -13.92114258 6.86816406 C-13.59301758 4.16113281 -13.59301758 4.16113281 -12.20239258 2.36035156 C-8.38718247 -0.48253558 -4.57232426 0.00604718 0 0 Z " fill="#F60808" transform="translate(19.593017578125,120.8388671875)"/>
<path d="M0 0 C7.17568404 3.66581954 13.45409407 8.13516538 19.6875 13.25 C20.36296875 13.78496094 21.0384375 14.31992187 21.734375 14.87109375 C42.68102998 31.9713497 53.21363952 57.98525564 56.125 84.1875 C55.51540046 88.45469676 54.07596451 89.62890141 50.6875 92.25 C47.67632469 92.97281271 44.74764202 92.93398336 41.66210938 92.89697266 C40.31243828 92.91011505 40.31243828 92.91011505 38.9355011 92.92352295 C35.96692408 92.9454952 32.99984165 92.93097184 30.03125 92.9140625 C27.96528844 92.91743126 25.89932881 92.92228437 23.83337402 92.92855835 C19.50574861 92.93592674 15.17863956 92.92522496 10.85107422 92.90185547 C5.30569101 92.87336804 -0.23848228 92.88977214 -5.78382111 92.91971779 C-10.04926662 92.93779146 -14.31442559 92.93203234 -18.57987976 92.91907883 C-20.62440637 92.91574502 -22.66895904 92.91983097 -24.7134552 92.93147659 C-27.57204014 92.94418621 -30.42866997 92.92480665 -33.28710938 92.89697266 C-34.13089645 92.90709381 -34.97468353 92.91721497 -35.84403992 92.92764282 C-39.89411155 92.85463708 -41.87511923 92.53662106 -45.33714294 90.26791382 C-48.01927559 86.17020139 -48.0108812 83.1178078 -47.94360352 78.31640625 C-47.95433647 76.98136551 -47.95433647 76.98136551 -47.96528625 75.61935425 C-47.98216736 72.68321084 -47.96277413 69.74859556 -47.94140625 66.8125 C-47.942235 64.7689603 -47.94469462 62.72542067 -47.94871521 60.68188477 C-47.95157281 56.40132557 -47.93687537 52.12128972 -47.90942383 47.84082031 C-47.8753414 42.35609236 -47.88135977 36.87230021 -47.9000864 31.38752747 C-47.91065892 27.1684185 -47.90171622 22.94952699 -47.88670158 18.73043823 C-47.88152118 16.70824835 -47.88199985 14.68603575 -47.88824654 12.66384888 C-47.8937017 9.83660107 -47.87331389 7.0106893 -47.84594727 4.18359375 C-47.85247314 3.34915741 -47.85899902 2.51472107 -47.86572266 1.65499878 C-47.80072313 -2.29749741 -47.5870863 -4.30433892 -45.46665955 -7.74584961 C-36.00441697 -16.54917023 -9.99658111 -4.90353055 0 0 Z " fill="#F60707" transform="translate(170.3125,14.75)"/>
<path d="M0 0 C25.16604959 -0.04010881 25.16604959 -0.04010881 35.85351562 -0.04882812 C43.15991945 -0.05481715 50.4663108 -0.06191902 57.77270508 -0.07543945 C63.66005147 -0.08626637 69.54738449 -0.09227642 75.43474007 -0.09487724 C77.68632277 -0.09673185 79.93790469 -0.10035313 82.18948174 -0.10573006 C85.33133427 -0.11293789 88.47313083 -0.11399105 91.61499023 -0.11352539 C93.02623421 -0.1189183 93.02623421 -0.1189183 94.46598816 -0.12442017 C100.88594784 -0.11405216 100.88594784 -0.11405216 102 1 C102.10043271 3.64200061 102.1361685 6.2578859 102.12939453 8.90039062 C102.13202301 10.14178047 102.13202301 10.14178047 102.13470459 11.4082489 C102.13912393 14.15760362 102.13618483 16.90689457 102.1328125 19.65625 C102.13348552 21.55814629 102.13445552 23.46004249 102.13571167 25.36193848 C102.13718875 29.35344255 102.13503375 33.34492429 102.13037109 37.33642578 C102.1246738 42.46490507 102.12795275 47.59333202 102.13394356 52.72180939 C102.13754889 56.65074054 102.13641072 60.57965918 102.13381577 64.5085907 C102.13314642 66.40012112 102.13397519 68.29165265 102.13629532 70.18318176 C102.13882138 72.82202177 102.13498191 75.46077581 102.12939453 78.09960938 C102.13141876 78.88925583 102.13344299 79.67890228 102.13552856 80.49247742 C102.11426251 85.88573749 102.11426251 85.88573749 101 87 C97.86440114 87.09534958 94.75086387 87.12550879 91.61499023 87.11352539 C90.13710526 87.11374443 90.13710526 87.11374443 88.62936401 87.1139679 C85.35575193 87.11326832 82.08219596 87.10547385 78.80859375 87.09765625 C76.54557832 87.09579223 74.28256249 87.09436825 72.01954651 87.09336853 C66.05021052 87.0895421 60.08089868 87.07971075 54.11157227 87.06866455 C46.95636749 87.05665917 39.80115465 87.05204879 32.64594269 87.04621124 C21.76394497 87.03649906 10.8820003 87.01734337 0 87 C0 58.29 0 29.58 0 0 Z M9 17 C9 37.13 9 57.26 9 78 C36.39 78 63.78 78 92 78 C93.31538313 75.36923375 93.12710325 73.41053669 93.12939453 70.46459961 C93.13412277 68.72786232 93.13412277 68.72786232 93.13894653 66.95603943 C93.1369223 65.70081985 93.13489807 64.44560028 93.1328125 63.15234375 C93.13424759 61.22909019 93.13424759 61.22909019 93.13571167 59.26698303 C93.13718671 56.55256955 93.13503994 53.83818896 93.13037109 51.1237793 C93.12466822 47.63758959 93.12795754 44.15147677 93.13394356 40.66528988 C93.13841655 37.34846826 93.13528929 34.03166756 93.1328125 30.71484375 C93.13584885 28.82897804 93.13584885 28.82897804 93.13894653 26.90501404 C93.13579437 25.75034134 93.13264221 24.59566864 93.12939453 23.40600586 C93.12859894 22.38389511 93.12780334 21.36178436 93.12698364 20.30870056 C93.25954964 18.03714768 93.25954964 18.03714768 92 17 C89.41360962 16.90492179 86.8540144 16.87443624 84.26733398 16.88647461 C83.4576416 16.88632858 82.64794922 16.88618256 81.8137207 16.8860321 C79.12448492 16.88673146 76.43531751 16.8945249 73.74609375 16.90234375 C71.88664284 16.90420785 70.02719144 16.90563179 68.16773987 16.90663147 C63.26370904 16.91045729 58.35970764 16.92028812 53.45568848 16.93133545 C47.57700458 16.94334247 41.69831087 16.9479515 35.81961823 16.95378876 C26.87972499 16.96349984 17.93989637 16.98265595 9 17 Z " fill="#F60F0F" transform="translate(6,11)"/>
<path d="M0 0 C1.9375 1.9375 1.9375 1.9375 3 4 C3 4.66 3 5.32 3 6 C4.32064453 5.96519531 4.32064453 5.96519531 5.66796875 5.9296875 C6.82941406 5.91164062 7.99085938 5.89359375 9.1875 5.875 C10.33605469 5.85179687 11.48460937 5.82859375 12.66796875 5.8046875 C18.68062382 6.15712918 21.61612645 8.22740586 25.75 12.5 C26.52859375 13.2940625 27.3071875 14.088125 28.109375 14.90625 C31.20512048 18.33459623 31.09863343 20.46286241 31 25 C32.32 25 33.64 25 35 25 C35.0928125 24.25363281 35.185625 23.50726563 35.28125 22.73828125 C36.51839831 18.02501514 39.89588012 15.42143073 44 13 C47.10276641 12.45414295 49.89109049 12.54661736 53 13 C53.268125 12.38125 53.53625 11.7625 53.8125 11.125 C55 9 55 9 58 7 C62.09555939 6.54493785 64.29075697 6.58370518 67.875 8.6875 C70.2949241 11.32094681 71 12.4348595 71 16 C69.84346991 19.10437024 68.85101852 21.2750583 66.3125 23.4375 C62.76037515 24.30153037 59.51953219 23.92658597 56 23 C54 21.5625 54 21.5625 53 20 C53 19.34 53 18.68 53 18 C47.256932 17.93672559 47.256932 17.93672559 42.2890625 20.40234375 C40.76367086 22.21947959 40.76367086 22.21947959 39 25 C40.0725 24.95875 41.145 24.9175 42.25 24.875 C47.36125654 25.04537522 47.36125654 25.04537522 50 27 C52.10093129 30.28971448 52.2167871 32.89494191 52.125 36.75 C52.10695313 37.73484375 52.08890625 38.7196875 52.0703125 39.734375 C52.04710937 40.48203125 52.02390625 41.2296875 52 42 C53.5159375 42.0309375 53.5159375 42.0309375 55.0625 42.0625 C59.46084217 42.65013276 61.49384891 45.07292035 64.32421875 48.30859375 C66.09523184 50.09611978 67.70522891 51.00509924 70 52 C70.2475 51.21625 70.495 50.4325 70.75 49.625 C72 47 72 47 73.625 45.625 C77.23159941 44.67589489 80.42655782 44.97576498 84 46 C86.31495619 47.80855953 86.84331938 49.0341334 87.30859375 51.90234375 C87.52756451 55.46559521 87.38625915 57.42061127 85.375 60.4375 C82.4340868 62.37231132 80.52349544 62.92809193 77 63 C73.9817215 61.69665247 72.40628828 60.92092009 71.0625 57.875 C70.711875 57.25625 70.36125 56.6375 70 56 C69.13375 55.9175 68.2675 55.835 67.375 55.75 C62.79975651 54.73327922 60.9796695 52.24219864 57.9296875 48.8125 C55.89786952 46.90407177 54.71950513 46.38677406 52 46 C52.02126462 49.40614946 52.02126462 49.40614946 53 53 C55.74941676 54.58376759 55.74941676 54.58376759 59 56 C59.97961171 57.17445161 60.9150553 58.38662659 61.8125 59.625 C63.57706568 61.85392507 64.40122193 62.8641071 67.203125 63.5 C68.75987916 63.58247704 70.31723777 63.65432258 71.875 63.71484375 C74 64 74 64 77.0625 66.1875 C79 69 79 69 79.625 71.9375 C78.75697586 76.19081827 77.22341676 78.11949992 74 81 C69.846859 81.74163232 67.82604561 81.44893783 64.125 79.4375 C61.38366423 76.29302662 61.14982639 74.12022569 61 70 C61.495 68.515 61.495 68.515 62 67 C60.7160751 64.89068547 60.7160751 64.89068547 58.8125 62.875 C57.89404297 61.81925781 57.89404297 61.81925781 56.95703125 60.7421875 C54.91122731 58.92097282 53.67393535 58.39130761 51 58 C50.896875 58.61875 50.79375 59.2375 50.6875 59.875 C50 62 50 62 47 64 C43.64453125 64.1953125 43.64453125 64.1953125 39.8125 64.125 C37.564375 64.08375 35.31625 64.0425 33 64 C33 68.62 33 73.24 33 78 C34.32 78.66 35.64 79.32 37 80 C39 82 39 82 39.375 85.875 C39.28759372 88.88505365 39.09822928 89.85265608 37.375 92.4375 C34.41303588 94.3861606 32.55242634 94.92895147 29 95 C23.38823529 92.77647059 23.38823529 92.77647059 22 90 C21.41747573 82.77669903 21.41747573 82.77669903 23.875 79.5 C26 78 26 78 28 78 C28 73.38 28 68.76 28 64 C26.2675 64.0825 24.535 64.165 22.75 64.25 C19.36628769 64.41112916 17.57769367 64.3466162 14.65625 62.59375 C12.11334103 58.6114586 12.57275705 54.86513379 12.75 50.25 C12.76804688 49.36183594 12.78609375 48.47367188 12.8046875 47.55859375 C12.85172626 45.37129152 12.91742991 43.18620184 13 41 C7.97301202 42.0053976 4.64815291 43.35042007 1.14746094 47.17675781 C-0.97031243 50.54176452 -0.88815646 53.99384486 -0.875 57.875 C-0.895625 58.65875 -0.91625 59.4425 -0.9375 60.25 C-0.98423683 62.16621001 -0.99573101 64.08322487 -1 66 C-0.38125 66.28875 0.2375 66.5775 0.875 66.875 C3 68 3 68 5 70 C5.47458497 74.19216724 5.45614786 76.30057329 3.125 79.875 C0.61333682 82.38666318 -0.29384163 82.92153796 -3.8125 83.3125 C-7.85211856 82.91645896 -9.29729155 82.01158942 -12 79 C-13.14888518 75.05070721 -13.43129396 72.97041141 -11.75 69.1875 C-10 67 -10 67 -7 65 C-6.69289722 62.33942687 -6.53322424 59.85255853 -6.5 57.1875 C-6.41523214 50.49689407 -5.59591691 46.56017279 -0.73046875 41.76171875 C0.52830078 40.73498047 0.52830078 40.73498047 1.8125 39.6875 C2.64394531 38.99011719 3.47539062 38.29273438 4.33203125 37.57421875 C7.47297028 35.72092676 9.41348885 35.69108882 13 36 C12.938125 35.0925 12.87625 34.185 12.8125 33.25 C13.01881361 29.67389735 13.50548587 28.49451413 16 26 C18.75078884 25.08307039 20.35948913 24.89113917 23.1875 24.9375 C25.0746875 24.9684375 25.0746875 24.9684375 27 25 C24.98954668 19.20516395 22.46687691 14.16361894 17 11 C12.31880065 10.13443907 7.75361303 9.95384842 3 10 C2.70480469 10.79664063 2.40960938 11.59328125 2.10546875 12.4140625 C1 15 1 15 -0.6875 16.375 C-4.15005353 17.31082528 -6.55018394 16.92405787 -10 16 C-13.18639792 13.22211464 -13.91137036 11.63148617 -14.5 7.4375 C-14 4 -14 4 -12.1875 1.625 C-8.0110085 -1.47753654 -4.92929012 -1.14429949 0 0 Z M-10 5 C-9.67 7.31 -9.34 9.62 -9 12 C-6.66705225 12.04241723 -4.33297433 12.04092937 -2 12 C-0.67254834 10.88741409 -0.67254834 10.88741409 -0.75 8.0625 C-0.8325 7.051875 -0.915 6.04125 -1 5 C-5.01009099 2.32660601 -5.98990901 2.32660601 -10 5 Z M57 13 C56.66666667 15.5 56.66666667 15.5 57 18 C58.82703227 20.2491908 58.82703227 20.2491908 61.5 20.25 C64.17296773 20.2491908 64.17296773 20.2491908 66 18 C66.33333333 15.5 66.33333333 15.5 66 13 C64.17296773 10.7508092 64.17296773 10.7508092 61.5 10.75 C58.82703227 10.7508092 58.82703227 10.7508092 57 13 Z M17 31 C16.54930246 33.77811749 16.54930246 33.77811749 16.63671875 37.03125 C16.63736328 38.23394531 16.63800781 39.43664062 16.63867188 40.67578125 C16.65478516 41.93777344 16.67089844 43.19976562 16.6875 44.5 C16.68427734 45.76199219 16.68105469 47.02398437 16.67773438 48.32421875 C16.22114463 54.75175925 16.22114463 54.75175925 19 60 C21.81711479 60.27861397 21.81711479 60.27861397 25.1015625 60.1953125 C26.31328125 60.18886719 27.525 60.18242187 28.7734375 60.17578125 C30.67996094 60.15064453 30.67996094 60.15064453 32.625 60.125 C34.543125 60.11146484 34.543125 60.11146484 36.5 60.09765625 C39.66685167 60.07402303 42.83333424 60.04107629 46 60 C48.89494649 55.07304455 48.32965354 50.06460707 48.3125 44.5 C48.32861328 43.45457031 48.34472656 42.40914062 48.36132812 41.33203125 C48.36197266 40.32527344 48.36261719 39.31851563 48.36328125 38.28125 C48.36626221 37.36408203 48.36924316 36.44691406 48.37231445 35.50195312 C47.91656454 32.43931371 47.27240059 31.1084629 45 29 C42.34831576 28.4162371 42.34831576 28.4162371 39.34375 28.5390625 C38.23902344 28.54292969 37.13429688 28.54679687 35.99609375 28.55078125 C34.84238281 28.57527344 33.68867188 28.59976563 32.5 28.625 C31.34628906 28.62628906 30.19257813 28.62757813 29.00390625 28.62890625 C22.63665032 28.48353726 22.63665032 28.48353726 17 31 Z M74 51 C73.66666667 53.5 73.66666667 53.5 74 56 C75.89107141 58.33278733 75.89107141 58.33278733 79.0625 58.1875 C81.88833136 58.33187793 81.88833136 58.33187793 83 57 C83.25005386 54.04182893 83.25005386 54.04182893 83 51 C81.17296773 48.7508092 81.17296773 48.7508092 78.5 48.75 C75.82703227 48.7508092 75.82703227 48.7508092 74 51 Z M66.1875 69.1875 C64.7111635 71.01846177 64.7111635 71.01846177 65.3125 73.6875 C65.539375 74.450625 65.76625 75.21375 66 76 C69.28696233 76.79953138 70.71023192 77.09658936 74 76 C74.76956136 73.65466049 74.76956136 73.65466049 75 71 C73.91666667 69.08333333 73.91666667 69.08333333 72 68 C68.19649626 67.63464916 68.19649626 67.63464916 66.1875 69.1875 Z M-5 69 C-6.32 70.32 -7.64 71.64 -9 73 C-8.37466625 75.52363988 -8.37466625 75.52363988 -7 78 C-4.60648505 79.16210219 -4.60648505 79.16210219 -2 79 C0 78 0 78 1 76 C1.16210219 73.39351495 1.16210219 73.39351495 0 71 C-2.47636012 69.62533375 -2.47636012 69.62533375 -5 69 Z M26 83 C25.5 86 25.5 86 26 89 C28.76988076 91.31543207 28.76988076 91.31543207 31.625 90.6875 C33.93501965 90.2258486 33.93501965 90.2258486 35 89 C35.41717279 86.58462162 35.41717279 86.58462162 35 84 C31.48388972 80.6010934 30.14031379 80.23979081 26 83 Z " fill="#F73434" transform="translate(135,123)"/>
<path d="M0 0 C0.66 0 1.32 0 2 0 C4.02558881 3.34939881 4.21738987 5.86962551 4.125 9.75 C4.10695312 10.73484375 4.08890625 11.7196875 4.0703125 12.734375 C4.04710937 13.48203125 4.02390625 14.2296875 4 15 C5.5159375 15.0309375 5.5159375 15.0309375 7.0625 15.0625 C11.46084217 15.65013276 13.49384891 18.07292035 16.32421875 21.30859375 C18.09523184 23.09611978 19.70522891 24.00509924 22 25 C22.2475 24.21625 22.495 23.4325 22.75 22.625 C24 20 24 20 25.625 18.625 C29.23159941 17.67589489 32.42655782 17.97576498 36 19 C38.31495619 20.80855953 38.84331938 22.0341334 39.30859375 24.90234375 C39.52756451 28.46559521 39.38625915 30.42061127 37.375 33.4375 C34.4340868 35.37231132 32.52349544 35.92809193 29 36 C25.9817215 34.69665247 24.40628828 33.92092009 23.0625 30.875 C22.711875 30.25625 22.36125 29.6375 22 29 C21.13375 28.9175 20.2675 28.835 19.375 28.75 C14.79975651 27.73327922 12.9796695 25.24219864 9.9296875 21.8125 C7.89786952 19.90407177 6.71950513 19.38677406 4 19 C4.02126462 22.40614946 4.02126462 22.40614946 5 26 C7.74941676 27.58376759 7.74941676 27.58376759 11 29 C11.97961171 30.17445161 12.9150553 31.38662659 13.8125 32.625 C15.57706568 34.85392507 16.40122193 35.8641071 19.203125 36.5 C20.75987916 36.58247704 22.31723777 36.65432258 23.875 36.71484375 C26 37 26 37 29.0625 39.1875 C31 42 31 42 31.625 44.9375 C30.75697586 49.19081827 29.22341676 51.11949992 26 54 C21.846859 54.74163232 19.82604561 54.44893783 16.125 52.4375 C13.38366423 49.29302662 13.14982639 47.12022569 13 43 C13.33 42.01 13.66 41.02 14 40 C12.7160751 37.89068547 12.7160751 37.89068547 10.8125 35.875 C9.89404297 34.81925781 9.89404297 34.81925781 8.95703125 33.7421875 C6.91122731 31.92097282 5.67393535 31.39130761 3 31 C2.67 32.32 2.34 33.64 2 35 C-1.44250299 35 -4.85755973 34.91103548 -8.296875 34.78125 C-9.50214844 34.73613281 -10.70742187 34.69101563 -11.94921875 34.64453125 C-13.20347656 34.59683594 -14.45773438 34.54914063 -15.75 34.5 C-17.01972656 34.45230469 -18.28945312 34.40460938 -19.59765625 34.35546875 C-22.7317965 34.23764393 -25.86590908 34.11912841 -29 34 C-29 33.67 -29 33.34 -29 33 C-20.09 32.67 -11.18 32.34 -2 32 C-1.07608174 26.45649044 -0.81655986 21.45324784 -0.8125 15.875 C-0.79413086 14.53501953 -0.79413086 14.53501953 -0.77539062 13.16796875 C-0.77345703 12.30558594 -0.77152344 11.44320312 -0.76953125 10.5546875 C-0.76336792 9.38655518 -0.76336792 9.38655518 -0.75708008 8.19482422 C-1.02785513 5.74832396 -1.78133901 4.12095916 -3 2 C-2.01 1.67 -1.02 1.34 0 1 C0 0.67 0 0.34 0 0 Z M26 24 C25.66666667 26.5 25.66666667 26.5 26 29 C27.89107141 31.33278733 27.89107141 31.33278733 31.0625 31.1875 C33.88833136 31.33187793 33.88833136 31.33187793 35 30 C35.25005386 27.04182893 35.25005386 27.04182893 35 24 C33.17296773 21.7508092 33.17296773 21.7508092 30.5 21.75 C27.82703227 21.7508092 27.82703227 21.7508092 26 24 Z M18.1875 42.1875 C16.7111635 44.01846177 16.7111635 44.01846177 17.3125 46.6875 C17.539375 47.450625 17.76625 48.21375 18 49 C21.28696233 49.79953138 22.71023192 50.09658936 26 49 C26.76956136 46.65466049 26.76956136 46.65466049 27 44 C25.91666667 42.08333333 25.91666667 42.08333333 24 41 C20.19649626 40.63464916 20.19649626 40.63464916 18.1875 42.1875 Z " fill="#F96565" transform="translate(183,150)"/>
<path d="M0 0 C1.9375 1.9375 1.9375 1.9375 3 4 C3 4.66 3 5.32 3 6 C4.32064453 5.96519531 4.32064453 5.96519531 5.66796875 5.9296875 C6.82941406 5.91164062 7.99085938 5.89359375 9.1875 5.875 C10.33605469 5.85179687 11.48460937 5.82859375 12.66796875 5.8046875 C18.68062382 6.15712918 21.61612645 8.22740586 25.75 12.5 C26.52859375 13.2940625 27.3071875 14.088125 28.109375 14.90625 C31.20512048 18.33459623 31.09863343 20.46286241 31 25 C32.32 25 33.64 25 35 25 C35.0928125 24.25363281 35.185625 23.50726563 35.28125 22.73828125 C36.51839831 18.02501514 39.89588012 15.42143073 44 13 C47.10276641 12.45414295 49.89109049 12.54661736 53 13 C53.268125 12.38125 53.53625 11.7625 53.8125 11.125 C55 9 55 9 58 7 C62.09555939 6.54493785 64.29075697 6.58370518 67.875 8.6875 C70.2949241 11.32094681 71 12.4348595 71 16 C69.84346991 19.10437024 68.85101852 21.2750583 66.3125 23.4375 C62.76037515 24.30153037 59.51953219 23.92658597 56 23 C54 21.5625 54 21.5625 53 20 C53 19.34 53 18.68 53 18 C49.7 18.33 46.4 18.66 43 19 C42.505 18.01 42.505 18.01 42 17 C37.81822976 20.83081939 37.81822976 20.83081939 36 26 C34.91460937 26.03738281 33.82921875 26.07476562 32.7109375 26.11328125 C31.26559261 26.17897875 29.82028161 26.24542476 28.375 26.3125 C27.66214844 26.33505859 26.94929688 26.35761719 26.21484375 26.38085938 C21.47413052 26.62006968 18.17684645 27.54264397 14 30 C14.8125 28.0625 14.8125 28.0625 16 26 C18.75078884 25.08307039 20.35948913 24.89113917 23.1875 24.9375 C25.0746875 24.9684375 25.0746875 24.9684375 27 25 C24.98954668 19.20516395 22.46687691 14.16361894 17 11 C12.31880065 10.13443907 7.75361303 9.95384842 3 10 C2.70480469 10.79664063 2.40960938 11.59328125 2.10546875 12.4140625 C1 15 1 15 -0.6875 16.375 C-4.15005353 17.31082528 -6.55018394 16.92405787 -10 16 C-13.18639792 13.22211464 -13.91137036 11.63148617 -14.5 7.4375 C-14 4 -14 4 -12.1875 1.625 C-8.0110085 -1.47753654 -4.92929012 -1.14429949 0 0 Z M-10 5 C-9.67 7.31 -9.34 9.62 -9 12 C-6.66705225 12.04241723 -4.33297433 12.04092937 -2 12 C-0.67254834 10.88741409 -0.67254834 10.88741409 -0.75 8.0625 C-0.8325 7.051875 -0.915 6.04125 -1 5 C-5.01009099 2.32660601 -5.98990901 2.32660601 -10 5 Z M57 13 C56.66666667 15.5 56.66666667 15.5 57 18 C58.82703227 20.2491908 58.82703227 20.2491908 61.5 20.25 C64.17296773 20.2491908 64.17296773 20.2491908 66 18 C66.33333333 15.5 66.33333333 15.5 66 13 C64.17296773 10.7508092 64.17296773 10.7508092 61.5 10.75 C58.82703227 10.7508092 58.82703227 10.7508092 57 13 Z " fill="#FA7B7B" transform="translate(135,123)"/>
<path d="M0 0 C25.16604959 -0.04010881 25.16604959 -0.04010881 35.85351562 -0.04882812 C43.15991945 -0.05481715 50.4663108 -0.06191902 57.77270508 -0.07543945 C63.66005147 -0.08626637 69.54738449 -0.09227642 75.43474007 -0.09487724 C77.68632277 -0.09673185 79.93790469 -0.10035313 82.18948174 -0.10573006 C85.33133427 -0.11293789 88.47313083 -0.11399105 91.61499023 -0.11352539 C93.02623421 -0.1189183 93.02623421 -0.1189183 94.46598816 -0.12442017 C100.88594784 -0.11405216 100.88594784 -0.11405216 102 1 C102.10043271 3.64200061 102.1361685 6.2578859 102.12939453 8.90039062 C102.13202301 10.14178047 102.13202301 10.14178047 102.13470459 11.4082489 C102.13912393 14.15760362 102.13618483 16.90689457 102.1328125 19.65625 C102.13348552 21.55814629 102.13445552 23.46004249 102.13571167 25.36193848 C102.13718875 29.35344255 102.13503375 33.34492429 102.13037109 37.33642578 C102.1246738 42.46490507 102.12795275 47.59333202 102.13394356 52.72180939 C102.13754889 56.65074054 102.13641072 60.57965918 102.13381577 64.5085907 C102.13314642 66.40012112 102.13397519 68.29165265 102.13629532 70.18318176 C102.13882138 72.82202177 102.13498191 75.46077581 102.12939453 78.09960938 C102.13141876 78.88925583 102.13344299 79.67890228 102.13552856 80.49247742 C102.11426251 85.88573749 102.11426251 85.88573749 101 87 C97.86440114 87.09534958 94.75086387 87.12550879 91.61499023 87.11352539 C90.13710526 87.11374443 90.13710526 87.11374443 88.62936401 87.1139679 C85.35575193 87.11326832 82.08219596 87.10547385 78.80859375 87.09765625 C76.54557832 87.09579223 74.28256249 87.09436825 72.01954651 87.09336853 C66.05021052 87.0895421 60.08089868 87.07971075 54.11157227 87.06866455 C46.95636749 87.05665917 39.80115465 87.05204879 32.64594269 87.04621124 C21.76394497 87.03649906 10.8820003 87.01734337 0 87 C0 58.29 0 29.58 0 0 Z M1 2 C1 29.72 1 57.44 1 86 C33.67 86 66.34 86 100 86 C100 58.28 100 30.56 100 2 C67.33 2 34.66 2 1 2 Z " fill="#FB9E9E" transform="translate(6,11)"/>
<path d="M0 0 C6.13719378 1.8969508 12.06194276 4.18634349 18 6.625 C18.76626709 6.93832275 19.53253418 7.25164551 20.32202148 7.57446289 C25.87407464 9.87407464 25.87407464 9.87407464 27 11 C27.07179964 12.51928038 27.08392007 14.04167482 27.0625 15.5625 C27.05347656 16.38878906 27.04445313 17.21507813 27.03515625 18.06640625 C27.02355469 18.70449219 27.01195313 19.34257813 27 20 C18.07498571 23.89382182 9.11758137 27.57712062 0 31 C-1 30 -1 30 -1.09765625 27.93359375 C-1.08605469 27.10988281 -1.07445313 26.28617188 -1.0625 25.4375 C-1.05347656 24.61121094 -1.04445313 23.78492187 -1.03515625 22.93359375 C-1.02355469 22.29550781 -1.01195313 21.65742187 -1 21 C-0.14535156 20.65066406 0.70929687 20.30132812 1.58984375 19.94140625 C2.69457031 19.48636719 3.79929687 19.03132813 4.9375 18.5625 C6.03964844 18.11003906 7.14179688 17.65757813 8.27734375 17.19140625 C10.86568916 16.25575392 10.86568916 16.25575392 12 15 C11.14535156 14.65066406 10.29070313 14.30132812 9.41015625 13.94140625 C8.30542969 13.48636719 7.20070313 13.03132813 6.0625 12.5625 C4.96035156 12.11003906 3.85820312 11.65757813 2.72265625 11.19140625 C0 10 0 10 -1 9 C-1.1328125 7.1875 -1.1328125 7.1875 -1.125 5 C-1.12757812 4.278125 -1.13015625 3.55625 -1.1328125 2.8125 C-1 1 -1 1 0 0 Z " fill="#F72626" transform="translate(22,35)"/>
<path d="M0 0 C0.33 0 0.66 0 1 0 C1 2.31 1 4.62 1 7 C-0.65 7.33 -2.3 7.66 -4 8 C-1.525 8.495 -1.525 8.495 1 9 C1 15.93 1 22.86 1 30 C0.67 30 0.34 30 0 30 C0 23.73 0 17.46 0 11 C-7.9722196 13.18779217 -7.9722196 13.18779217 -13 19 C-13.80330979 21.97713593 -13.88541377 24.80293839 -13.875 27.875 C-13.895625 28.65875 -13.91625 29.4425 -13.9375 30.25 C-13.98423683 32.16621001 -13.99573101 34.08322487 -14 36 C-13.071875 36.433125 -13.071875 36.433125 -12.125 36.875 C-10 38 -10 38 -8 40 C-7.52541503 44.19216724 -7.54385214 46.30057329 -9.875 49.875 C-12.38666318 52.38666318 -13.29384163 52.92153796 -16.8125 53.3125 C-20.85211856 52.91645896 -22.29729155 52.01158942 -25 49 C-26.14888518 45.05070721 -26.43129396 42.97041141 -24.75 39.1875 C-23 37 -23 37 -20 35 C-19.69289722 32.33942687 -19.53322424 29.85255853 -19.5 27.1875 C-19.41523214 20.49689407 -18.59591691 16.56017279 -13.73046875 11.76171875 C-12.89128906 11.07722656 -12.05210937 10.39273438 -11.1875 9.6875 C-10.35605469 8.99011719 -9.52460938 8.29273438 -8.66796875 7.57421875 C-5.52702972 5.72092676 -3.58651115 5.69108882 0 6 C0 4.02 0 2.04 0 0 Z M-18 39 C-19.32 40.32 -20.64 41.64 -22 43 C-21.37466625 45.52363988 -21.37466625 45.52363988 -20 48 C-17.60648505 49.16210219 -17.60648505 49.16210219 -15 49 C-13 48 -13 48 -12 46 C-11.83789781 43.39351495 -11.83789781 43.39351495 -13 41 C-15.47636012 39.62533375 -15.47636012 39.62533375 -18 39 Z " fill="#F96868" transform="translate(148,153)"/>
<path d="M0 0 C9.9 0 19.8 0 30 0 C30 0.33 30 0.66 30 1 C25.38 1 20.76 1 16 1 C16 5.62 16 10.24 16 15 C17.32 15.66 18.64 16.32 20 17 C22 19 22 19 22.375 22.875 C22.28759372 25.88505365 22.09822928 26.85265608 20.375 29.4375 C17.41303588 31.3861606 15.55242634 31.92895147 12 32 C6.38823529 29.77647059 6.38823529 29.77647059 5 27 C4.41747573 19.77669903 4.41747573 19.77669903 6.875 16.5 C9 15 9 15 11 15 C11 10.38 11 5.76 11 1 C7.37 1 3.74 1 0 1 C0 0.67 0 0.34 0 0 Z M9 20 C8.5 23 8.5 23 9 26 C11.76988076 28.31543207 11.76988076 28.31543207 14.625 27.6875 C16.93501965 27.2258486 16.93501965 27.2258486 18 26 C18.41717279 23.58462162 18.41717279 23.58462162 18 21 C14.48388972 17.6010934 13.14031379 17.23979081 9 20 Z " fill="#FA7D7D" transform="translate(152,186)"/>
<path d="M0 0 C1.11697266 -0.00128906 2.23394531 -0.00257812 3.38476562 -0.00390625 C4.55587891 -0.00003906 5.72699219 0.00382812 6.93359375 0.0078125 C8.10857422 0.00394531 9.28355469 0.00007813 10.49414062 -0.00390625 C12.16766602 -0.00197266 12.16766602 -0.00197266 13.875 0 C14.90439697 0.00112793 15.93379395 0.00225586 16.99438477 0.00341797 C19.37109375 0.1328125 19.37109375 0.1328125 20.37109375 1.1328125 C20.37109375 3.7728125 20.37109375 6.4128125 20.37109375 9.1328125 C11.13109375 9.1328125 1.89109375 9.1328125 -7.62890625 9.1328125 C-7.62890625 6.4928125 -7.62890625 3.8528125 -7.62890625 1.1328125 C-4.98062446 -0.1913284 -2.96210513 0.00324208 0 0 Z " fill="#F50101" transform="translate(55.62890625,63.8671875)"/>
<path d="M0 0 C1.9375 1.9375 1.9375 1.9375 3 4 C3 4.66 3 5.32 3 6 C3.90363281 5.96519531 4.80726563 5.93039063 5.73828125 5.89453125 C6.91777344 5.86746094 8.09726563 5.84039062 9.3125 5.8125 C10.48425781 5.77769531 11.65601563 5.74289063 12.86328125 5.70703125 C16 6 16 6 19 9 C13.06 9.33 7.12 9.66 1 10 C0.67 8.02 0.34 6.04 0 4 C-4.65052872 3.73067479 -4.65052872 3.73067479 -9 5 C-9 7.31 -9 9.62 -9 12 C-5.7 12 -2.4 12 1 12 C0.34 13.32 -0.32 14.64 -1 16 C-4.57599349 17.19199783 -6.29597079 17.32001328 -9.75 15.75 C-12 14 -12 14 -14 11 C-14.66812946 4.87547998 -14.66812946 4.87547998 -12.1875 1.625 C-8.0110085 -1.47753654 -4.92929012 -1.14429949 0 0 Z " fill="#F97676" transform="translate(135,123)"/>
<path d="M0 0 C4.0061008 0.78691266 5.7464174 1.69095422 8.5 4.6875 C9.93037039 8.08462967 9.60828396 9.39684306 8.3125 12.875 C5.71509972 16.90544872 5.71509972 16.90544872 2.5 17.6875 C-0.34266789 17.83135971 -2.82394562 17.70474745 -5.5 16.6875 C-6.5 14.6875 -7.5 12.6875 -8.5 10.6875 C-11.25093303 9.81646309 -13.57831089 9.78329309 -16.5 9.6875 C-16.5 9.3575 -16.5 9.0275 -16.5 8.6875 C-15.283125 8.666875 -14.06625 8.64625 -12.8125 8.625 C-10.09402127 8.3197673 -8.91038759 8.16437496 -7.1015625 6.0625 C-6.71742188 5.423125 -6.33328125 4.78375 -5.9375 4.125 C-3.88275085 0.7626832 -3.88275085 0.7626832 0 0 Z M-4.5 6.6875 C-4.83333333 9.1875 -4.83333333 9.1875 -4.5 11.6875 C-2.67296773 13.9366908 -2.67296773 13.9366908 0 13.9375 C2.67296773 13.9366908 2.67296773 13.9366908 4.5 11.6875 C4.83333333 9.1875 4.83333333 9.1875 4.5 6.6875 C2.67296773 4.4383092 2.67296773 4.4383092 0 4.4375 C-2.67296773 4.4383092 -2.67296773 4.4383092 -4.5 6.6875 Z " fill="#FA7878" transform="translate(196.5,129.3125)"/>
<path d="M0 0 C0.33 0 0.66 0 1 0 C1 2.31 1 4.62 1 7 C-0.65 7.33 -2.3 7.66 -4 8 C-2.35 8.33 -0.7 8.66 1 9 C1 15.93 1 22.86 1 30 C0.67 30 0.34 30 0 30 C0 23.73 0 17.46 0 11 C-7.9722196 13.18779217 -7.9722196 13.18779217 -13 19 C-13.80330979 21.97713593 -13.88541377 24.80293839 -13.875 27.875 C-13.895625 28.65875 -13.91625 29.4425 -13.9375 30.25 C-13.98423683 32.16621001 -13.99573101 34.08322487 -14 36 C-13.01 36.33 -12.02 36.66 -11 37 C-11.99 37.495 -11.99 37.495 -13 38 C-13.66 37.67 -14.32 37.34 -15 37 C-15.05791844 33.87507749 -15.09356746 30.75029234 -15.125 27.625 C-15.14175781 26.73554688 -15.15851563 25.84609375 -15.17578125 24.9296875 C-15.18222656 24.07890625 -15.18867188 23.228125 -15.1953125 22.3515625 C-15.20578613 21.56604004 -15.21625977 20.78051758 -15.22705078 19.97119141 C-15 18 -15 18 -13 16 C-13.99 16 -14.98 16 -16 16 C-16 15.34 -16 14.68 -16 14 C-14.0234375 12.0546875 -14.0234375 12.0546875 -11.375 9.875 C-10.51648438 9.15054688 -9.65796875 8.42609375 -8.7734375 7.6796875 C-5.56237143 5.73495735 -3.68791492 5.66473501 0 6 C0 4.02 0 2.04 0 0 Z " fill="#FB9898" transform="translate(148,153)"/>
<path d="M0 0 C2 1 2 1 4 3 C4.56172182 7.42355932 4.85243039 9.72135442 2.375 13.4375 C-0.58696412 15.3861606 -2.44757366 15.92895147 -6 16 C-11.61176471 13.77647059 -11.61176471 13.77647059 -13 11 C-13.203125 9.125 -13.203125 9.125 -13.25 7 C-13.27578125 6.29875 -13.3015625 5.5975 -13.328125 4.875 C-13.21984375 4.25625 -13.1115625 3.6375 -13 3 C-12.01 2.34 -11.02 1.68 -10 1 C-10 2.32 -10 3.64 -10 5 C-9.67 5 -9.34 5 -9 5 C-8.67 6.65 -8.34 8.3 -8 10 C-4.41672247 11.00217064 -4.41672247 11.00217064 -1 10 C-1 9.236875 -1 8.47375 -1 7.6875 C-1 2 -1 2 0 0 Z " fill="#F96767" transform="translate(170,202)"/>
<path d="M0 0 C0.66 0 1.32 0 2 0 C4.02558881 3.34939881 4.21738987 5.86962551 4.125 9.75 C4.10695312 10.73484375 4.08890625 11.7196875 4.0703125 12.734375 C4.04710937 13.48203125 4.02390625 14.2296875 4 15 C5.32 15.33 6.64 15.66 8 16 C6.35 16 4.7 16 3 16 C2.505 11.05 2.505 11.05 2 6 C1.67 14.58 1.34 23.16 1 32 C1.66 32 2.32 32 3 32 C2.34 33.32 1.68 34.64 1 36 C-0.485 35.505 -0.485 35.505 -2 35 C-4.06362991 34.84970012 -6.13123915 34.75155552 -8.19921875 34.68359375 C-9.40771484 34.64169922 -10.61621094 34.59980469 -11.86132812 34.55664062 C-13.7552832 34.49766602 -13.7552832 34.49766602 -15.6875 34.4375 C-16.96173828 34.39431641 -18.23597656 34.35113281 -19.54882812 34.30664062 C-22.69910852 34.2004514 -25.84946839 34.09840467 -29 34 C-29 33.67 -29 33.34 -29 33 C-20.09 32.67 -11.18 32.34 -2 32 C-1.07608174 26.45649044 -0.81655986 21.45324784 -0.8125 15.875 C-0.79413086 14.53501953 -0.79413086 14.53501953 -0.77539062 13.16796875 C-0.77345703 12.30558594 -0.77152344 11.44320312 -0.76953125 10.5546875 C-0.76336792 9.38655518 -0.76336792 9.38655518 -0.75708008 8.19482422 C-1.02785513 5.74832396 -1.78133901 4.12095916 -3 2 C-2.01 1.67 -1.02 1.34 0 1 C0 0.67 0 0.34 0 0 Z " fill="#FCB5B5" transform="translate(183,150)"/>
<path d="M0 0 C0.99 0.33 1.98 0.66 3 1 C2.34 1.66 1.68 2.32 1 3 C0.63105418 5.03060659 0.63105418 5.03060659 0.5859375 7.3515625 C0.52792969 8.62773437 0.52792969 8.62773437 0.46875 9.9296875 C0.4378125 10.81914062 0.406875 11.70859375 0.375 12.625 C0.33632812 13.5221875 0.29765625 14.419375 0.2578125 15.34375 C0.16340643 17.5622927 0.07783252 19.78082403 0 22 C0.66 22 1.32 22 2 22 C2 22.66 2 23.32 2 24 C-1.96 24.495 -1.96 24.495 -6 25 C-6.33 24.34 -6.66 23.68 -7 23 C-6.01 21.515 -6.01 21.515 -5 20 C-4.74690483 16.61937165 -4.63377082 13.28054811 -4.609375 9.89257812 C-4.48808637 6.25728824 -4.29309488 4.35991153 -1.9609375 1.49609375 C-1.31382812 1.00238281 -0.66671875 0.50867188 0 0 Z " fill="#F96969" transform="translate(133,168)"/>
<path d="M0 0 C0.99 0.495 0.99 0.495 2 1 C2 4.3 2 7.6 2 11 C4.64 11 7.28 11 10 11 C10.66 12.32 11.32 13.64 12 15 C8.58900832 15 5.36911686 14.50854594 2 14 C2 16.97 2 19.94 2 23 C4.475 23.99 4.475 23.99 7 25 C6.67 25.66 6.34 26.32 6 27 C4.02 27 2.04 27 0 27 C0 18.09 0 9.18 0 0 Z " fill="#F62626" transform="translate(184,155)"/>
<path d="M0 0 C0.66 0.33 1.32 0.66 2 1 C0.700625 2.299375 0.700625 2.299375 -0.625 3.625 C-2.05797807 5.20622449 -2.05797807 5.20622449 -3 7 C-2.47158931 10.34084905 -2.47158931 10.34084905 -1 13 C-1.66 12.67 -2.32 12.34 -3 12 C-3 11.34 -3 10.68 -3 10 C-6.3 10.33 -9.6 10.66 -13 11 C-13.33 10.34 -13.66 9.68 -14 9 C-18.28070998 12.77593959 -18.28070998 12.77593959 -20 18 C-21.98 18 -23.96 18 -26 18 C-26 15.69 -26 13.38 -26 11 C-25.67 11 -25.34 11 -25 11 C-25 12.98 -25 14.96 -25 17 C-23.68 17 -22.36 17 -21 17 C-20.9071875 16.25363281 -20.814375 15.50726563 -20.71875 14.73828125 C-19.48160169 10.02501514 -16.10411988 7.42143073 -12 5 C-8.89723359 4.45414295 -6.10890951 4.54661736 -3 5 C-2.690625 4.360625 -2.38125 3.72125 -2.0625 3.0625 C-1 1 -1 1 0 0 Z " fill="#FBA8A8" transform="translate(191,131)"/>
<path d="M0 0 C0.33 0 0.66 0 1 0 C1.04125 1.093125 1.0825 2.18625 1.125 3.3125 C1.41375 4.529375 1.7025 5.74625 2 7 C4.7996736 8.77495275 4.7996736 8.77495275 8 10 C10.49664727 11.75440078 11.74439192 12.9895493 12.5 15.9765625 C13.21102987 21.14930477 12.84015404 25.86572531 12 31 C11.34 30.34 10.68 29.68 10 29 C10.37125 27.1746875 10.37125 27.1746875 10.75 25.3125 C11.21152863 22.52304124 11.28113671 21.4404185 9.73828125 19.0234375 C8.64636794 17.82716884 7.51665139 16.66403243 6.34765625 15.54296875 C5 14 5 14 5 11 C4.360625 10.855625 3.72125 10.71125 3.0625 10.5625 C1 10 1 10 0 9 C-0.07179964 7.48071962 -0.08392007 5.95832518 -0.0625 4.4375 C-0.05347656 3.61121094 -0.04445312 2.78492188 -0.03515625 1.93359375 C-0.02355469 1.29550781 -0.01195312 0.65742188 0 0 Z " fill="#FA7F7F" transform="translate(186,169)"/>
<path d="M0 0 C4.75 0.875 4.75 0.875 7 2 C7.48484848 9.27272727 7.48484848 9.27272727 5.375 12.4375 C2.50958918 14.3226387 0.40898391 14.78240528 -3 15 C-3.99 14.67 -4.98 14.34 -6 14 C-6.6875 11.9375 -6.6875 11.9375 -7 10 C-5.700625 10.020625 -4.40125 10.04125 -3.0625 10.0625 C-1.70834367 10.08399454 -0.35243917 10.07148199 1 10 C2.32420249 8.8956608 2.32420249 8.8956608 2.1875 6.125 C2.25343513 2.83429242 2.25343513 2.83429242 0 0 Z " fill="#F85E5E" transform="translate(215,171)"/>
<path d="M0 0 C0 3.33333333 0 6.66666667 0 10 C3.63 10 7.26 10 11 10 C10.67 11.32 10.34 12.64 10 14 C2.7755102 15.20408163 2.7755102 15.20408163 -0.375 14.375 C-2.54188875 12.54147875 -3.15646064 10.67120799 -4 8 C-6.64 7.67 -9.28 7.34 -12 7 C-12 6.67 -12 6.34 -12 6 C-10.7625 5.938125 -9.525 5.87625 -8.25 5.8125 C-4.69449876 5.39643071 -4.15360875 5.15744896 -1.5 2.4375 C-1.005 1.633125 -0.51 0.82875 0 0 Z " fill="#F73535" transform="translate(192,132)"/>
<path d="M0 0 C1.11697266 -0.00128906 2.23394531 -0.00257812 3.38476562 -0.00390625 C4.55587891 -0.00003906 5.72699219 0.00382812 6.93359375 0.0078125 C8.10857422 0.00394531 9.28355469 0.00007813 10.49414062 -0.00390625 C12.16766602 -0.00197266 12.16766602 -0.00197266 13.875 0 C14.90439697 0.00112793 15.93379395 0.00225586 16.99438477 0.00341797 C19.37109375 0.1328125 19.37109375 0.1328125 20.37109375 1.1328125 C20.51224536 3.80340101 20.41356482 6.45713488 20.37109375 9.1328125 C19.71109375 9.1328125 19.05109375 9.1328125 18.37109375 9.1328125 C18.37109375 6.8228125 18.37109375 4.5128125 18.37109375 2.1328125 C10.12109375 2.1328125 1.87109375 2.1328125 -6.62890625 2.1328125 C-6.62890625 4.4428125 -6.62890625 6.7528125 -6.62890625 9.1328125 C-6.95890625 9.1328125 -7.28890625 9.1328125 -7.62890625 9.1328125 C-7.62890625 6.4928125 -7.62890625 3.8528125 -7.62890625 1.1328125 C-4.98062446 -0.1913284 -2.96210513 0.00324208 0 0 Z " fill="#F98888" transform="translate(55.62890625,63.8671875)"/>
<path d="M0 0 C0.66 0.33 1.32 0.66 2 1 C3 4 3 4 2.4375 6 C2.293125 6.66 2.14875 7.32 2 8 C4.0072908 11.0109362 4.83884224 11.63016497 8 13 C6.68 13 5.36 13 4 13 C4 13.66 4 14.32 4 15 C5.65 15 7.3 15 9 15 C9 15.33 9 15.66 9 16 C5.36804503 16.33785628 3.41176773 16.22875985 0.1875 14.4375 C-2.67800813 11.24450523 -3 9.25880812 -3 5 C-1.5625 2.0625 -1.5625 2.0625 0 0 Z " fill="#FA8989" transform="translate(125,190)"/>
<path d="M0 0 C2 1 4 2 6 3 C6 3.66 6 4.32 6 5 C6.90363281 4.96519531 7.80726563 4.93039063 8.73828125 4.89453125 C9.91777344 4.86746094 11.09726563 4.84039062 12.3125 4.8125 C13.48425781 4.77769531 14.65601563 4.74289063 15.86328125 4.70703125 C19 5 19 5 22 8 C16.06 8.33 10.12 8.66 4 9 C3.67 7.02 3.34 5.04 3 3 C2.01 2.67 1.02 2.34 0 2 C0 1.34 0 0.68 0 0 Z " fill="#F73636" transform="translate(132,124)"/>
<path d="M0 0 C9.57 0 19.14 0 29 0 C29.33 0.66 29.66 1.32 30 2 C19.84706673 2.7903481 10.14898301 3.14727634 0 2 C0 1.34 0 0.68 0 0 Z " fill="#F50505" transform="translate(152,184)"/>
<path d="M0 0 C0.75 1.6875 0.75 1.6875 1 4 C-0.9375 6.75 -0.9375 6.75 -3 9 C-1.88625 8.95875 -0.7725 8.9175 0.375 8.875 C4 9 4 9 6 11 C3.93831015 11.19620767 1.87559002 11.38160753 -0.1875 11.5625 C-1.33605469 11.66691406 -2.48460937 11.77132812 -3.66796875 11.87890625 C-6.68631199 11.98859985 -9.08923936 11.74002389 -12 11 C-12 10.67 -12 10.34 -12 10 C-10.02 10 -8.04 10 -6 10 C-5.938125 9.278125 -5.87625 8.55625 -5.8125 7.8125 C-4.75543353 4.15342375 -2.79449929 2.50788398 0 0 Z " fill="#F97474" transform="translate(177,139)"/>
<path d="M0 0 C0.66 0.66 1.32 1.32 2 2 C4.66242821 2.46290221 4.66242821 2.46290221 7.625 2.625 C9.12933594 2.73714844 9.12933594 2.73714844 10.6640625 2.8515625 C11.43492187 2.90054688 12.20578125 2.94953125 13 3 C12.1796875 4.9453125 12.1796875 4.9453125 11 7 C7.91856133 7.93782916 5.8244994 8.20055391 2.6875 7.4375 C0.18964306 5.30969594 0.27514008 3.16411094 0 0 Z " fill="#F85353" transform="translate(123,132)"/>
<path d="M0 0 C1.32 0.33 2.64 0.66 4 1 C4.33975517 4.65236803 4.20830209 6.61672415 2.4375 9.875 C0 12 0 12 -3.75 12.3125 C-4.8225 12.209375 -5.895 12.10625 -7 12 C-7 11.34 -7 10.68 -7 10 C-3.535 9.505 -3.535 9.505 0 9 C0 6.03 0 3.06 0 0 Z " fill="#F85555" transform="translate(210,191)"/>
<path d="M0 0 C0.598125 0.165 1.19625 0.33 1.8125 0.5 C4.11344336 1.1114124 4.11344336 1.1114124 7 1 C8.70250393 2.28725907 10.37064759 3.62131719 12 5 C12.66 5.33 13.32 5.66 14 6 C14.33 5.34 14.66 4.68 15 4 C15 4.99 15 5.98 15 7 C12.69 6.67 10.38 6.34 8 6 C7.67 6.66 7.34 7.32 7 8 C5.83035398 6.8572081 4.66435444 5.71068285 3.5 4.5625 C2.8503125 3.92441406 2.200625 3.28632813 1.53125 2.62890625 C0 1 0 1 0 0 Z " fill="#FA7E7E" transform="translate(191,169)"/>
<path d="M0 0 C0.66 0 1.32 0 2 0 C2.66 1.65 3.32 3.3 4 5 C8.62 5 13.24 5 18 5 C18 5.33 18 5.66 18 6 C13.71 6 9.42 6 5 6 C4.34 7.65 3.68 9.3 3 11 C2.34 10.67 1.68 10.34 1 10 C1.33 9.67 1.66 9.34 2 9 C1.34 8.34 0.68 7.68 0 7 C-0.125 3.375 -0.125 3.375 0 0 Z " fill="#FBA5A5" transform="translate(133,127)"/>
<path d="M0 0 C-1.875 3.875 -1.875 3.875 -3 5 C-3.07319621 7.69654854 -3.09242537 10.36691458 -3.0625 13.0625 C-3.05798828 13.82111328 -3.05347656 14.57972656 -3.04882812 15.36132812 C-3.0370068 17.24091871 -3.01907078 19.12046899 -3 21 C-3.33 21 -3.66 21 -4 21 C-4.90204913 16.94077892 -5.14954474 12.95627928 -5.25 8.8125 C-5.27578125 7.78769531 -5.3015625 6.76289063 -5.328125 5.70703125 C-5 3 -5 3 -3.609375 1.13671875 C-2 0 -2 0 0 0 Z " fill="#F97171" transform="translate(11,122)"/>
<path d="M0 0 C1.4375 2.0625 1.4375 2.0625 2 4 C0.35 3.01 -1.3 2.02 -3 1 C-2.67 1.99 -2.34 2.98 -2 4 C-4.97 3.67 -7.94 3.34 -11 3 C-10.67 2.01 -10.34 1.02 -10 0 C-6.21603308 -1.26132231 -3.85909105 -0.91214879 0 0 Z " fill="#F96767" transform="translate(135,123)"/>
<path d="M0 0 C3.3 0 6.6 0 10 0 C10 1.32 10 2.64 10 4 C4.375 5.125 4.375 5.125 1 4 C0.67 2.68 0.34 1.36 0 0 Z " fill="#F74242" transform="translate(208,181)"/>
<path d="M0 0 C0.66 0 1.32 0 2 0 C2.3403125 1.2065625 2.3403125 1.2065625 2.6875 2.4375 C3.120625 3.283125 3.55375 4.12875 4 5 C6.54775306 5.89386164 6.54775306 5.89386164 9 6 C9 6.33 9 6.66 9 7 C6.69 7 4.38 7 2 7 C1.67 7.66 1.34 8.32 1 9 C-0.5 7.625 -0.5 7.625 -2 6 C-2 5.34 -2 4.68 -2 4 C-3.32 3.67 -4.64 3.34 -6 3 C-4.35 3 -2.7 3 -1 3 C-0.67 2.01 -0.34 1.02 0 0 Z " fill="#FB9F9F" transform="translate(207,175)"/>
<path d="M0 0 C1.65 0.33 3.3 0.66 5 1 C4.67 2.65 4.34 4.3 4 6 C2.35 5.67 0.7 5.34 -1 5 C-0.67 3.35 -0.34 1.7 0 0 Z " fill="#FA8484" transform="translate(157,173)"/>
<path d="M0 0 C1.65 0.33 3.3 0.66 5 1 C4.67 2.65 4.34 4.3 4 6 C2.35 5.67 0.7 5.34 -1 5 C-0.67 3.35 -0.34 1.7 0 0 Z " fill="#FA7E7E" transform="translate(174,173)"/>
<path d="M0 0 C1.65 0 3.3 0 5 0 C5.5625 1.9375 5.5625 1.9375 6 4 C5 5 5 5 1.9375 5.0625 C0.4834375 5.0315625 0.4834375 5.0315625 -1 5 C-0.67 3.35 -0.34 1.7 0 0 Z " fill="#FA8080" transform="translate(165,165)"/>
<path d="M0 0 C1.65 0 3.3 0 5 0 C5 1.65 5 3.3 5 5 C2 6 2 6 -1 5 C-0.67 3.35 -0.34 1.7 0 0 Z " fill="#FA8080" transform="translate(157,157)"/>
<path d="M0 0 C0.33 0.99 0.66 1.98 1 3 C-1.31 3.33 -3.62 3.66 -6 4 C-6 4.66 -6 5.32 -6 6 C-4.02 6 -2.04 6 0 6 C0 6.33 0 6.66 0 7 C-6.75 7.125 -6.75 7.125 -9 6 C-8.67 4.68 -8.34 3.36 -8 2 C-5.36 2 -2.72 2 0 2 C0 1.34 0 0.68 0 0 Z " fill="#FA8080" transform="translate(209,197)"/>
<path d="M0 0 C1.65 0 3.3 0 5 0 C5.33 1.65 5.66 3.3 6 5 C4.02 5 2.04 5 0 5 C0 3.35 0 1.7 0 0 Z " fill="#F97474" transform="translate(173,165)"/>
<path d="M0 0 C1.65 0 3.3 0 5 0 C5 1.65 5 3.3 5 5 C3.02 5 1.04 5 -1 5 C-0.67 3.35 -0.34 1.7 0 0 Z " fill="#FA7E7E" transform="translate(165,157)"/>
<path d="M0 0 C0.99 0.33 1.98 0.66 3 1 C3.33 3.64 3.66 6.28 4 9 C2.68 9 1.36 9 0 9 C-1.125 2.25 -1.125 2.25 0 0 Z " fill="#F85757" transform="translate(123,193)"/>
<path d="M0 0 C2 1 2 1 4 3 C4.36933645 5.75372909 4.18336678 8.20365661 4 11 C3.67 11 3.34 11 3 11 C2.67 8.69 2.34 6.38 2 4 C1.67 5.98 1.34 7.96 1 10 C0.67 10 0.34 10 0 10 C-1.125 6.6875 -1.125 6.6875 -2 3 C-1.34 2.01 -0.68 1.02 0 0 Z " fill="#FA9595" transform="translate(170,202)"/>
<path d="M0 0 C1.98 0.66 3.96 1.32 6 2 C5.13375 2.1546875 5.13375 2.1546875 4.25 2.3125 C0.24566424 3.53604704 -1.70056869 5.55085303 -4 9 C-4.25 6.75 -4.25 6.75 -4 4 C-2 1.6875 -2 1.6875 0 0 Z " fill="#F73333" transform="translate(162,202)"/>
<path d="M0 0 C0.66 0 1.32 0 2 0 C1.67 2.31 1.34 4.62 1 7 C0.67 6.34 0.34 5.68 0 5 C-2.31 5 -4.62 5 -7 5 C-7 4.01 -7 3.02 -7 2 C-4.69 2.33 -2.38 2.66 0 3 C0 2.01 0 1.02 0 0 Z " fill="#F61818" transform="translate(206,173)"/>
<path d="M0 0 C0.99 0.33 1.98 0.66 3 1 C2.51917969 1.32613281 2.03835937 1.65226563 1.54296875 1.98828125 C-0.82372666 5.07397274 -0.57299527 8.44155967 -0.6875 12.1875 C-0.72166016 12.93708984 -0.75582031 13.68667969 -0.79101562 14.45898438 C-0.87334294 16.30546838 -0.93835281 18.15270994 -1 20 C-1.33 20 -1.66 20 -2 20 C-2.05392397 17.22890693 -2.09363455 14.45886182 -2.125 11.6875 C-2.14175781 10.90181641 -2.15851563 10.11613281 -2.17578125 9.30664062 C-2.18544922 8.1706543 -2.18544922 8.1706543 -2.1953125 7.01171875 C-2.20578613 6.31522217 -2.21625977 5.61872559 -2.22705078 4.90112305 C-2 3 -2 3 0 0 Z " fill="#F50505" transform="translate(133,168)"/>
<path d="M0 0 C0.58203125 1.890625 0.58203125 1.890625 1 4 C-0.3125 5.75 -0.3125 5.75 -2 7 C-2.66 7 -3.32 7 -4 7 C-4.33 7.99 -4.66 8.98 -5 10 C-5.68359375 8.203125 -5.68359375 8.203125 -6 6 C-4.78515625 4.296875 -4.78515625 4.296875 -3.0625 2.75 C-2.21365234 1.96882812 -2.21365234 1.96882812 -1.34765625 1.171875 C-0.90292969 0.78515625 -0.45820313 0.3984375 0 0 Z " fill="#F72F2F" transform="translate(177,139)"/>
<path d="M0 0 C1.2065625 0.0309375 1.2065625 0.0309375 2.4375 0.0625 C0.4575 1.0525 0.4575 1.0525 -1.5625 2.0625 C-1.5625 4.7025 -1.5625 7.3425 -1.5625 10.0625 C-3.5625 8.0625 -3.5625 8.0625 -3.75 4.5 C-3.50921403 0.08559059 -3.50921403 0.08559059 0 0 Z " fill="#F72B2B" transform="translate(152.5625,151.9375)"/>
<path d="M0 0 C0 3.20395416 -0.74335022 5.09399739 -2 8 C-5.3 7.67 -8.6 7.34 -12 7 C-12 6.67 -12 6.34 -12 6 C-10.7625 5.938125 -9.525 5.87625 -8.25 5.8125 C-4.69449876 5.39643071 -4.15360875 5.15744896 -1.5 2.4375 C-1.005 1.633125 -0.51 0.82875 0 0 Z " fill="#F50707" transform="translate(192,132)"/>
<path d="M0 0 C0.99 0.33 1.98 0.66 3 1 C3 1.66 3 2.32 3 3 C2.34 3 1.68 3 1 3 C1.33 4.98 1.66 6.96 2 9 C0 6 0 6 0 4 C-2.97 3.505 -2.97 3.505 -6 3 C-6 2.67 -6 2.34 -6 2 C-4.02 2 -2.04 2 0 2 C0 1.34 0 0.68 0 0 Z " fill="#FA9292" transform="translate(209,188)"/>
<path d="M0 0 C0.33 1.32 0.66 2.64 1 4 C1.66 4 2.32 4 3 4 C2.34 5.32 1.68 6.64 1 8 C0.01 7.67 -0.98 7.34 -2 7 C-1.125 2.25 -1.125 2.25 0 0 Z " fill="#F96A6A" transform="translate(183,178)"/>
<path d="M0 0 C0.66 0.33 1.32 0.66 2 1 C2 3.64 2 6.28 2 9 C1.01 9.495 1.01 9.495 0 10 C-1.231394 6.30581799 -0.64432764 3.7943739 0 0 Z " fill="#F62626" transform="translate(171,205)"/>
<path d="M0 0 C3.96 0 7.92 0 12 0 C12 0.99 12 1.98 12 3 C6.06 2.01 6.06 2.01 0 1 C0 0.67 0 0.34 0 0 Z " fill="#F50303" transform="translate(171,150)"/>
<path d="M0 0 C-0.33 1.32 -0.66 2.64 -1 4 C-1.99 4 -2.98 4 -4 4 C-4 3.34 -4 2.68 -4 2 C-5.65 2 -7.3 2 -9 2 C-9 1.67 -9 1.34 -9 1 C-2.25 0 -2.25 0 0 0 Z " fill="#F96D6D" transform="translate(203,142)"/>
<path d="M0 0 C0 0.99 0 1.98 0 3 C-2.31 3 -4.62 3 -7 3 C-7 2.34 -7 1.68 -7 1 C-4.50935112 0.31292445 -2.62113708 0 0 0 Z " fill="#F61A1A" transform="translate(136,202)"/>
<path d="M0 0 C0 0.99 0 1.98 0 3 C-2.31 3 -4.62 3 -7 3 C-7 2.34 -7 1.68 -7 1 C-4.50935112 0.31292445 -2.62113708 0 0 0 Z " fill="#F61212" transform="translate(210,200)"/>
<path d="M0 0 C1.47010495 2.9402099 1.70957948 5.74729019 2 9 C1.34 9.66 0.68 10.32 0 11 C-1 10 -1 10 -1.1328125 7.96875 C-1.13023437 7.1540625 -1.12765625 6.339375 -1.125 5.5 C-1.12757813 4.6853125 -1.13015625 3.870625 -1.1328125 3.03125 C-1 1 -1 1 0 0 Z " fill="#F61A1A" transform="translate(199,191)"/>
<path d="M0 0 C2.38564077 0.57584432 4.66682784 1.22227595 7 2 C6.67 2.66 6.34 3.32 6 4 C4.02 4 2.04 4 0 4 C0 2.68 0 1.36 0 0 Z " fill="#F84242" transform="translate(184,178)"/>
<path d="M0 0 C-0.99 0.495 -0.99 0.495 -2 1 C-1.34 1.66 -0.68 2.32 0 3 C-2.31 3 -4.62 3 -7 3 C-6.67 2.01 -6.34 1.02 -6 0 C-3 -1 -3 -1 0 0 Z " fill="#F85252" transform="translate(131,123)"/>
<path d="M0 0 C0.99 0.495 0.99 0.495 2 1 C2 3.31 2 5.62 2 8 C2.99 8.33 3.98 8.66 5 9 C3.0625 9.5625 3.0625 9.5625 1 10 C0 9 0 9 -0.09765625 6.93359375 C-0.08605469 6.10988281 -0.07445313 5.28617188 -0.0625 4.4375 C-0.05347656 3.61121094 -0.04445313 2.78492188 -0.03515625 1.93359375 C-0.02355469 1.29550781 -0.01195313 0.65742187 0 0 Z " fill="#FCB9B9" transform="translate(21,56)"/>
</svg>
