<?xml version="1.0" encoding="UTF-8"?>
<svg version="1.1" xmlns="http://www.w3.org/2000/svg" width="800" height="825">
<path d="M0 0 C1.65384201 0.00323273 1.65384201 0.00323273 3.34109497 0.00653076 C19.18457008 0.0562288 34.70709997 0.31678419 50.3125 3.3125 C51.36163574 3.50585938 52.41077148 3.69921875 53.49169922 3.8984375 C97.83890702 12.2802344 139.7127962 30.6862489 172.71484375 61.8671875 C174.88373235 63.90887812 177.0915487 65.84020436 179.375 67.75 C203.29803245 88.602167 217.16117881 115.3584131 220.08544922 146.94775391 C225.61929075 228.95571524 198.21266905 313.22007317 128.75048828 460.80029297 C126.56611965 464.61644802 124.43528399 468.46182751 122.3125 472.3125 C129.7933724 472.54973697 136.81153417 471.63982507 144.1875 470.4375 C145.29480469 470.26347656 146.40210938 470.08945312 147.54296875 469.91015625 C152.70973907 469.09051583 157.85118401 468.21164072 162.984375 467.203125 C178.25639731 464.40348501 194.49886157 464.92158955 207.75 473.625 C211.89145945 476.7947578 215.3922738 479.97982017 218.3125 484.3125 C218.79847656 484.99828125 219.28445313 485.6840625 219.78515625 486.390625 C225.66070336 496.53780942 224.93691462 510.88216327 222.49609375 522.046875 C212.19020477 549.19409476 181.55385511 567.10675589 156.5 578.625 C130.73845031 589.92457217 102.00405982 593.53472221 74.125 593.375 C72.58528792 593.36997197 71.04557425 593.36541138 69.50585938 593.36132812 C65.77470572 593.35043264 62.04361346 593.33324082 58.3125 593.3125 C57.60943772 599.38940352 57.17727859 605.44371701 56.91796875 611.5546875 C54.28599349 673.09273677 49.35598719 744.27688737 2.375 789.65625 C-27.9404247 816.75518402 -73.02636062 827.15828113 -112.6875 825.3125 C-131.45820925 823.64870721 -148.59965474 815.63027176 -162.6875 803.3125 C-163.30238281 802.78140625 -163.91726563 802.2503125 -164.55078125 801.703125 C-208.3361042 761.03813541 -206.21906141 683.17411075 -208.24607849 628.72297668 C-208.39729396 624.58628757 -208.54365318 620.44945181 -208.6875 616.3125 C-209.8226001 616.72459717 -210.9577002 617.13669434 -212.12719727 617.5612793 C-213.64851436 618.10749843 -215.16992224 618.65346475 -216.69140625 619.19921875 C-217.80787537 619.60569641 -217.80787537 619.60569641 -218.94689941 620.02038574 C-252.75060586 632.09641779 -294.4116694 628.30027435 -326.6875 613.3125 C-334.1931753 609.25408778 -340.51808473 604.17725279 -346.6875 598.3125 C-349.82271806 599.76370242 -352.65905752 601.56869713 -355.56054688 603.43554688 C-371.93969027 613.81525377 -390.56614638 617.89754108 -409.8125 614.125 C-426.64520013 610.08590343 -440.02371708 601.72816728 -452.22705078 589.73779297 C-453.50377488 588.49180245 -454.8101524 587.27634409 -456.12109375 586.06640625 C-514.42953091 531.08394055 -535.68893832 426.44888062 -576.58764648 223.2253418 C-576.64772089 220.92059864 -576.67266506 218.61798514 -576.6875 216.3125 C-576.6992627 215.26376709 -576.71102539 214.21503418 -576.72314453 213.13452148 C-577.02399431 167.22932546 -569.51746155 118.73703783 -542.6875 80.3125 C-541.68396484 78.86230469 -541.68396484 78.86230469 -540.66015625 77.3828125 C-513.61404356 40.30421015 -473.49920064 20.55266107 -428.99975586 13.21191406 C-420.30038668 11.85915856 -411.65386965 11.1552302 -402.8515625 11.109375 C-401.94263245 11.10236069 -401.03370239 11.09534637 -400.097229 11.08811951 C-397.16893509 11.07068139 -394.24084399 11.06426388 -391.3125 11.0625 C-389.80601898 11.06148788 -389.80601898 11.06148788 -388.269104 11.06045532 C-358.26221573 11.09241886 -329.45550207 15.25951886 -300.25 22.125 C-299.23832764 22.35936768 -298.22665527 22.59373535 -297.18432617 22.83520508 C-291.51230254 24.2040982 -286.056694 25.84427307 -280.56640625 27.82421875 C-267.80358727 32.92839249 -267.80358727 32.92839249 -254.64453125 31.91015625 C-251.48510919 30.30019544 -248.58668729 28.37581835 -245.64453125 26.40234375 C-211.56002909 3.68640353 -153.0899516 4.41604999 -114.41015625 11.359375 C-98.89385016 14.11286817 -87.13725156 11.55555003 -72.09765625 7.22851562 C-66.84595339 5.81783484 -61.55229961 4.86641162 -56.1875 4 C-55.31867187 3.85361084 -54.44984375 3.70722168 -53.5546875 3.55639648 C-35.73133175 0.73206495 -18.02446331 -0.06352802 0 0 Z " fill="#FCFCFD" transform="translate(576.6875,-0.3125)"/>
<path d="M0 0 C1.14106201 0.17619873 1.14106201 0.17619873 2.30517578 0.35595703 C23.59809697 3.80032643 44.26012046 12.08762421 63.26904297 22.09179688 C64.79786754 22.89394461 66.33763129 23.67516803 67.87890625 24.453125 C80.54996463 31.02470222 92.2302368 39.68196037 103 49 C103.78117187 49.6703125 104.56234375 50.340625 105.3671875 51.03125 C116.81838128 61.09328257 127.72464112 71.88823963 137 84 C137.91785711 85.16545252 138.83583341 86.33081117 139.75390625 87.49609375 C178 136.6398604 178 136.6398604 178 158 C176.55717651 157.98428955 176.55717651 157.98428955 175.08520508 157.96826172 C171.45275727 157.93155095 167.82032516 157.90891751 164.18774414 157.89013672 C162.62749457 157.88019372 161.06726304 157.86663453 159.50708008 157.84912109 C136.03635834 157.59261047 113.74976059 161.06041228 96.1015625 177.80078125 C84.59368941 189.93681335 81.42844929 205.48323406 81.625 221.6875 C81.63660156 222.9235498 81.64820313 224.15959961 81.66015625 225.43310547 C81.82895054 234.90668498 82.54936942 243.83375472 85 253 C85.36327393 254.36946777 85.36327393 254.36946777 85.73388672 255.76660156 C95.98990988 293.35380308 113.83255183 328.54056275 133.24609375 362.15625 C135.71516503 366.44999441 138.00305739 370.8055977 140.1875 375.25 C140.49671387 375.87680664 140.80592773 376.50361328 141.12451172 377.14941406 C142.45541497 379.85296347 143.78328844 382.55799613 145.10986328 385.26367188 C150.99415454 397.16426591 157.69966589 407.64637787 166 418 C167.41895961 419.78985125 168.83607354 421.58117006 170.25 423.375 C170.79140625 424.04273438 171.3328125 424.71046875 171.890625 425.3984375 C173 427 173 427 173 429 C171.92621094 429.50789063 170.85242188 430.01578125 169.74609375 430.5390625 C155.26882716 437.48543173 147.83441038 443.68156178 142 459 C139.94765386 465.59962738 139.8045917 471.95250731 139.75 478.8125 C139.26907716 499.50702544 136.29405542 520.0465469 133.78320312 540.56982422 C133.07169462 546.38953509 132.38392083 552.2117865 131.703125 558.03515625 C128.91370939 581.75676619 125.61716592 605.39083558 122 629 C121.80810593 630.25854294 121.80810593 630.25854294 121.61233521 631.54251099 C121.2227207 634.09005986 120.82885354 636.6369152 120.43359375 639.18359375 C120.31680267 639.94747406 120.2000116 640.71135437 120.0796814 641.49838257 C116.56314344 663.94499374 109.63447211 687.958298 90.90625 702.3828125 C68.19530872 718.20671732 36.3063358 726.43896171 8.87646484 722.71142578 C-5.39109 719.8807125 -17.2903752 711.03222692 -25.40087891 699.25952148 C-42.01670786 674.09132492 -43.09883266 646.27787577 -44.82244873 616.99934387 C-44.95702827 614.72591421 -45.10256395 612.45312977 -45.25323486 610.18070984 C-46.14023452 596.04469793 -46.16737276 581.91742391 -46.20452833 567.7578361 C-46.21543708 564.28055375 -46.23396489 560.80331464 -46.25234985 557.32606506 C-46.31361058 545.54106039 -46.36838391 533.75606808 -46.40136719 521.97094727 C-46.4197629 515.42566475 -46.44873465 508.88051711 -46.4893719 502.33533388 C-46.51030798 498.88900297 -46.52588047 495.44284063 -46.52817917 491.99644279 C-46.53309887 488.16140825 -46.55627795 484.3268755 -46.58349609 480.49194336 C-46.58048996 479.37020218 -46.57748383 478.248461 -46.5743866 477.09272766 C-46.71399782 463.81641619 -51.01724929 452.02123084 -60.125 442.1875 C-69.68306025 433.19357484 -81.01012887 429.68497528 -93.875 429.9296875 C-94.57625 429.95289063 -95.2775 429.97609375 -96 430 C-95.39520742 424.26595389 -93.88802668 419.22601093 -91.9375 413.8125 C-91.47005371 412.49983154 -91.47005371 412.49983154 -90.99316406 411.16064453 C-86.79891662 399.50647938 -82.1942629 388.02302277 -77.2578125 376.6640625 C-71.59869767 363.61337223 -66.62502079 350.75894124 -63 337 C-62.80325684 336.29681641 -62.60651367 335.59363281 -62.40380859 334.86914062 C-58.91824228 322.40684625 -57.65082031 309.90155561 -57 297 C-56.92990723 295.61893066 -56.92990723 295.61893066 -56.85839844 294.20996094 C-55.38823832 259.4326438 -57.63125473 207.70430339 -80.25 179.5 C-87.61866868 171.93036763 -96.8825182 166.80221799 -107 164 C-108.20269531 163.66355469 -108.20269531 163.66355469 -109.4296875 163.3203125 C-122.63708643 160.31676072 -137.86591753 161.09987312 -151 164 C-152.03278076 164.22598877 -152.03278076 164.22598877 -153.08642578 164.45654297 C-165.68308648 167.28813955 -177.25879225 171.68489116 -189 177 C-190.80017578 177.804375 -190.80017578 177.804375 -192.63671875 178.625 C-195.09875493 179.73465011 -197.55355656 180.85649385 -200 182 C-200.91250681 131.60934591 -179.82303147 75.142114 -146 38 C-145.33742188 37.26652344 -144.67484375 36.53304687 -143.9921875 35.77734375 C-130.13216927 21.19242917 -111.9084372 10.52227921 -93 4 C-91.90816406 3.62230469 -90.81632812 3.24460937 -89.69140625 2.85546875 C-61.06630905 -6.1467703 -29.288664 -4.53677718 0 0 Z " fill="#336791" transform="translate(457,57)"/>
<path d="M0 0 C0.8761496 0.00093658 1.75229919 0.00187317 2.65499878 0.00283813 C15.25917211 0.03209419 27.64826732 0.2534928 40.125 2.1875 C41.26227539 2.35942871 42.39955078 2.53135742 43.57128906 2.70849609 C62.60425251 5.62707888 81.10157044 9.30384821 99.5625 14.8125 C100.57755615 15.11397949 101.5926123 15.41545898 102.63842773 15.72607422 C103.58145752 16.01498535 104.5244873 16.30389648 105.49609375 16.6015625 C106.34099365 16.8588916 107.18589355 17.1162207 108.05639648 17.38134766 C110.125 18.1875 110.125 18.1875 112.125 20.1875 C111.54234375 20.7959375 110.9596875 21.404375 110.359375 22.03125 C74.6414973 60.22017584 56.86813293 111.3190037 50.57641602 162.54298401 C50.27018499 165.01534613 49.94755124 167.48572125 49.61016846 169.95402527 C48.10846457 181.46427299 47.89401779 192.80710751 48.00523567 204.40349388 C48.03606348 207.70255635 48.0523984 211.00143452 48.06529236 214.3006134 C48.10447774 223.6685686 48.16921858 233.03629984 48.24145508 242.40405273 C48.59856541 290.4904477 48.59856541 290.4904477 45.81567383 312.90795898 C41.59943537 347.43190088 49.28380603 380.70600814 70.70703125 408.34765625 C74.8893373 413.25966998 79.44804841 417.74658149 84.125 422.1875 C82.73071103 426.524432 80.72377071 428.8848368 77.4375 432 C73.76024271 435.56678175 70.28903887 439.17971513 66.9609375 443.0703125 C64.7729383 445.59349455 62.51206887 448.04304519 60.25 450.5 C56.94163086 454.12273905 53.76487642 457.80442891 50.6875 461.625 C47.46556683 465.61974254 44.11842389 469.43302109 40.625 473.1875 C36.31848295 477.8162785 32.28447065 482.60497303 28.30859375 487.5234375 C10.36620156 509.41379792 10.36620156 509.41379792 -2.46875 511.63671875 C-12.49040544 512.28467061 -20.48097217 507.49959239 -27.9375 501.1875 C-74.54716324 456.43924503 -94.66177656 375.61968487 -110.3125 314.9375 C-111.51242242 310.30942605 -112.71355739 305.68601091 -114.05859375 301.09765625 C-117.86250808 288.07831595 -120.68447478 274.85127126 -123.50666809 261.59262085 C-124.39785482 257.40635673 -125.30250525 253.22341087 -126.22213745 249.04330444 C-129.56636595 233.83346298 -132.61608601 218.59997712 -135.25 203.25 C-135.44119919 202.14173355 -135.44119919 202.14173355 -135.63626099 201.01107788 C-135.99934998 198.89489192 -136.35650536 196.7778078 -136.7109375 194.66015625 C-136.91251465 193.45625244 -137.1140918 192.25234863 -137.32177734 191.01196289 C-138.53575661 182.61964814 -139.03339726 174.38355661 -139.04296875 165.90625 C-139.04629715 164.85328735 -139.04962555 163.80032471 -139.05305481 162.7154541 C-139.05808968 160.49683057 -139.06046421 158.27819955 -139.06030273 156.05957031 C-139.06247591 152.72447689 -139.08063231 149.38972203 -139.09960938 146.0546875 C-139.14547912 129.29865754 -138.2964973 113.14325082 -134.25 96.8125 C-133.99130127 95.7601416 -133.73260254 94.7077832 -133.46606445 93.62353516 C-125.136073 61.15201712 -107.51282676 34.42863284 -78.34765625 17.0625 C-54.33708798 3.26685489 -27.21316685 -0.03739873 0 0 Z " fill="#336791" transform="translate(185.875,55.8125)"/>
<path d="M0 0 C1.65384201 0.00323273 1.65384201 0.00323273 3.34109497 0.00653076 C19.18457008 0.0562288 34.70709997 0.31678419 50.3125 3.3125 C51.36163574 3.50585938 52.41077148 3.69921875 53.49169922 3.8984375 C97.83890702 12.2802344 139.7127962 30.6862489 172.71484375 61.8671875 C174.88373235 63.90887812 177.0915487 65.84020436 179.375 67.75 C203.29803245 88.602167 217.16117881 115.3584131 220.08544922 146.94775391 C225.61929075 228.95571524 198.21266905 313.22007317 128.75048828 460.80029297 C126.56611965 464.61644802 124.43528399 468.46182751 122.3125 472.3125 C129.7933724 472.54973697 136.81153417 471.63982507 144.1875 470.4375 C145.29480469 470.26347656 146.40210938 470.08945312 147.54296875 469.91015625 C152.70973907 469.09051583 157.85118401 468.21164072 162.984375 467.203125 C178.25639731 464.40348501 194.49886157 464.92158955 207.75 473.625 C211.89145945 476.7947578 215.3922738 479.97982017 218.3125 484.3125 C218.79847656 484.99828125 219.28445313 485.6840625 219.78515625 486.390625 C225.66070336 496.53780942 224.93691462 510.88216327 222.49609375 522.046875 C212.19020477 549.19409476 181.55385511 567.10675589 156.5 578.625 C130.73845031 589.92457217 102.00405982 593.53472221 74.125 593.375 C72.58528792 593.36997197 71.04557425 593.36541138 69.50585938 593.36132812 C65.77470572 593.35043264 62.04361346 593.33324082 58.3125 593.3125 C57.60943772 599.38940352 57.17727859 605.44371701 56.91796875 611.5546875 C54.28599349 673.09273677 49.35598719 744.27688737 2.375 789.65625 C-27.9404247 816.75518402 -73.02636062 827.15828113 -112.6875 825.3125 C-131.45820925 823.64870721 -148.59965474 815.63027176 -162.6875 803.3125 C-163.30238281 802.78140625 -163.91726563 802.2503125 -164.55078125 801.703125 C-208.3361042 761.03813541 -206.21906141 683.17411075 -208.24607849 628.72297668 C-208.39729396 624.58628757 -208.54365318 620.44945181 -208.6875 616.3125 C-209.8226001 616.72459717 -210.9577002 617.13669434 -212.12719727 617.5612793 C-213.64851436 618.10749843 -215.16992224 618.65346475 -216.69140625 619.19921875 C-217.80787537 619.60569641 -217.80787537 619.60569641 -218.94689941 620.02038574 C-252.75060586 632.09641779 -294.4116694 628.30027435 -326.6875 613.3125 C-334.1931753 609.25408778 -340.51808473 604.17725279 -346.6875 598.3125 C-349.82271806 599.76370242 -352.65905752 601.56869713 -355.56054688 603.43554688 C-371.93969027 613.81525377 -390.56614638 617.89754108 -409.8125 614.125 C-426.64520013 610.08590343 -440.02371708 601.72816728 -452.22705078 589.73779297 C-453.50377488 588.49180245 -454.8101524 587.27634409 -456.12109375 586.06640625 C-514.42953091 531.08394055 -535.68893832 426.44888062 -576.58764648 223.2253418 C-576.64772089 220.92059864 -576.67266506 218.61798514 -576.6875 216.3125 C-576.6992627 215.26376709 -576.71102539 214.21503418 -576.72314453 213.13452148 C-577.02399431 167.22932546 -569.51746155 118.73703783 -542.6875 80.3125 C-541.68396484 78.86230469 -541.68396484 78.86230469 -540.66015625 77.3828125 C-513.61404356 40.30421015 -473.49920064 20.55266107 -428.99975586 13.21191406 C-420.30038668 11.85915856 -411.65386965 11.1552302 -402.8515625 11.109375 C-401.94263245 11.10236069 -401.03370239 11.09534637 -400.097229 11.08811951 C-397.16893509 11.07068139 -394.24084399 11.06426388 -391.3125 11.0625 C-389.80601898 11.06148788 -389.80601898 11.06148788 -388.269104 11.06045532 C-358.26221573 11.09241886 -329.45550207 15.25951886 -300.25 22.125 C-299.23832764 22.35936768 -298.22665527 22.59373535 -297.18432617 22.83520508 C-291.51230254 24.2040982 -286.056694 25.84427307 -280.56640625 27.82421875 C-267.80358727 32.92839249 -267.80358727 32.92839249 -254.64453125 31.91015625 C-251.48510919 30.30019544 -248.58668729 28.37581835 -245.64453125 26.40234375 C-211.56002909 3.68640353 -153.0899516 4.41604999 -114.41015625 11.359375 C-98.89385016 14.11286817 -87.13725156 11.55555003 -72.09765625 7.22851562 C-66.84595339 5.81783484 -61.55229961 4.86641162 -56.1875 4 C-55.31867187 3.85361084 -54.44984375 3.70722168 -53.5546875 3.55639648 C-35.73133175 0.73206495 -18.02446331 -0.06352802 0 0 Z M-89.4375 34.75 C-97.46081498 37.36091811 -103.439506 37.62286246 -111.6875 35.3125 C-113.26772899 34.96474734 -114.851085 34.63084415 -116.4375 34.3125 C-117.19587158 34.15934326 -117.95424316 34.00618652 -118.7355957 33.84838867 C-132.07183368 31.42732818 -145.35215347 30.94152046 -158.875 31 C-160.22470886 31.00323273 -160.22470886 31.00323273 -161.60168457 31.00653076 C-193.98059378 31.13081635 -223.70871656 37.29727543 -251.47583008 54.60668945 C-256.09569143 57.38419652 -256.09569143 57.38419652 -259.00097656 57.03222656 C-262.03543483 56.21928736 -265.03077056 55.3305438 -268.02734375 54.38671875 C-269.87102539 53.80954102 -269.87102539 53.80954102 -271.75195312 53.22070312 C-273.04304037 52.81402939 -274.33405583 52.40712768 -275.625 52 C-290.07016471 47.45452826 -304.37520158 43.15836047 -319.25 40.25 C-319.89514557 40.12243317 -320.54029114 39.99486633 -321.20498657 39.86343384 C-332.64087511 37.60644548 -344.10538148 35.64786167 -355.6875 34.3125 C-356.43241699 34.2182373 -357.17733398 34.12397461 -357.94482422 34.02685547 C-404.78702509 28.84072152 -457.70030998 33.33882955 -496 63.3125 C-497.57285888 64.63359764 -499.13552397 65.96693156 -500.6875 67.3125 C-501.49445313 67.98667969 -502.30140625 68.66085938 -503.1328125 69.35546875 C-537.14047082 98.61911203 -549.10752448 142.45612862 -553.09375 185.48828125 C-555.42002887 216.60226113 -551.88822521 246.59135752 -546.10675049 277.08795166 C-545.69421682 279.27686047 -545.28885796 281.46696397 -544.88623047 283.65771484 C-537.62025813 323.16483477 -528.75140242 362.54281549 -516.75488281 400.89550781 C-515.9875028 403.35210679 -515.22359771 405.80959423 -514.46386719 408.26855469 C-486.2835639 509.32673682 -486.2835639 509.32673682 -419.36328125 585.02734375 C-406.74144108 591.08951224 -393.64590073 592.62208146 -380.3125 588.25 C-366.34613225 582.58753153 -355.35772094 572.04141153 -346.12109375 560.3515625 C-343.29341137 556.82036364 -340.34860644 553.40832125 -337.375 550 C-332.4681639 544.37032564 -332.4681639 544.37032564 -327.609375 538.69921875 C-321.67616155 531.71436639 -315.60149116 524.9018284 -309.35546875 518.1953125 C-307.25911369 515.93014407 -305.20485322 513.64735433 -303.1875 511.3125 C-302.66414062 510.71566406 -302.14078125 510.11882812 -301.6015625 509.50390625 C-300.49852427 508.24104003 -299.39943429 506.97465147 -298.31152344 505.69873047 C-296.74422149 503.86822131 -295.15495509 502.05864294 -293.5625 500.25 C-293.05912109 499.65251953 -292.55574219 499.05503906 -292.03710938 498.43945312 C-290.5546875 496.77734375 -290.5546875 496.77734375 -287.6875 494.3125 C-285.2578125 494.26171875 -285.2578125 494.26171875 -282.6875 495.3125 C-281.0478125 495.95832031 -281.0478125 495.95832031 -279.375 496.6171875 C-278.1455887 497.14005017 -276.91643345 497.66351519 -275.6875 498.1875 C-263.99645738 502.97260442 -253.36842922 504.82582097 -240.6875 504.3125 C-256.7503465 527.69337685 -256.7503465 527.69337685 -269.6875 532.3125 C-270.76644531 532.704375 -271.84539062 533.09625 -272.95703125 533.5 C-282.59509098 536.72950693 -292.43962223 538.9618786 -302.375 541.08178711 C-314.0278886 543.63440056 -326.15159132 547.1764073 -333.25 557.5625 C-335.82796485 562.84910995 -335.61792196 568.98042637 -334.0625 574.55078125 C-329.24699511 585.62214293 -317.26985038 591.00309065 -306.6875 595.3125 C-301.79526002 597.05835347 -296.78805216 598.34497496 -291.6875 599.3125 C-290.76469238 599.48765137 -289.84188477 599.66280273 -288.89111328 599.84326172 C-280.23327054 601.33525891 -271.71075117 601.7131816 -262.9375 601.6875 C-262.23439697 601.68695618 -261.53129395 601.68641235 -260.80688477 601.68585205 C-249.92502861 601.64721349 -240.05555047 600.86789111 -229.6875 597.3125 C-229.02443848 597.09819336 -228.36137695 596.88388672 -227.67822266 596.66308594 C-213.23951532 591.9719571 -201.40706702 584.93583669 -189.6875 575.3125 C-189.69416183 575.91699478 -189.70082367 576.52148956 -189.70768738 577.14430237 C-190.00738036 605.77590601 -189.95964365 634.28172171 -188.3125 662.875 C-188.24928558 663.98094513 -188.18607117 665.08689026 -188.12094116 666.22634888 C-187.43146669 678.06006324 -186.60314998 689.88394025 -185.69921875 701.703125 C-185.62534943 702.7037648 -185.5514801 703.7044046 -185.47537231 704.73536682 C-183.44332698 730.39071263 -176.0843293 755.08222731 -159.6875 775.3125 C-159.06230469 776.10140625 -158.43710937 776.8903125 -157.79296875 777.703125 C-146.30598721 791.45942876 -128.5494415 801.26293701 -110.6875 803.3125 C-96.19187599 804.28422246 -81.77768107 804.04016832 -67.6875 800.3125 C-66.90810059 800.11914062 -66.12870117 799.92578125 -65.32568359 799.7265625 C-38.30298751 792.97479575 -11.61160619 781.90844634 4.25 757.75 C5.29559874 755.95167294 6.31731381 754.1392078 7.3125 752.3125 C7.80878906 751.46171875 8.30507813 750.6109375 8.81640625 749.734375 C16.79440988 735.15316732 20.45492506 718.90207596 23.24609375 702.66015625 C23.37353407 701.92909605 23.50097439 701.19803585 23.63227654 700.44482231 C26.39754514 684.53888978 28.57676961 668.57050732 30.59883499 652.55554962 C30.97634914 649.57476529 31.35964205 646.59473304 31.74265194 643.61465073 C34.03953699 625.73300898 36.27033777 607.84284433 38.375 589.9375 C38.47918243 589.05812775 38.58336487 588.17875549 38.69070435 587.2727356 C38.97711483 584.84121575 39.25748764 582.40909434 39.53515625 579.9765625 C39.61592407 579.29130997 39.69669189 578.60605743 39.77990723 577.90003967 C40.24994565 573.68556728 40.38066773 569.55123117 40.3125 565.3125 C41.281875 565.621875 42.25125 565.93125 43.25 566.25 C50.26889901 568.24763554 57.54251964 568.47144146 64.80078125 568.515625 C65.57776367 568.52259399 66.35474609 568.52956299 67.15527344 568.53674316 C69.6452382 568.55401905 72.13497782 568.56046163 74.625 568.5625 C75.47565033 568.56350708 76.32630066 568.56451416 77.20272827 568.56555176 C89.82537159 568.55543424 101.9439917 568.01129513 114.3125 565.3125 C115.75633108 565.0303308 117.20034324 564.74908665 118.64453125 564.46875 C145.65882087 558.9417798 177.99601192 544.00426694 194.4375 521 C195.41858627 519.45168519 196.38057604 517.89089373 197.3125 516.3125 C197.951875 515.301875 198.59125 514.29125 199.25 513.25 C201.00633607 508.39424734 201.36520594 503.96531897 199.43359375 499.09765625 C196.3287396 493.59499394 192.55774501 490.64646234 186.47265625 488.734375 C175.03224094 486.50008051 163.75215323 489.41639116 152.61279297 491.82958984 C130.80654399 496.4074672 103.98177653 499.12326259 83.3125 489.3125 C84.76361822 485.25681063 86.74002822 481.95467008 89.125 478.375 C128.82753995 417.6718196 159.93370027 347.87302161 178.65478516 277.73730469 C179.35030919 275.17310844 180.08400989 272.62194963 180.82421875 270.0703125 C187.28639116 247.55634767 191.06645749 224.48443586 194.3125 201.3125 C194.49272705 200.084104 194.6729541 198.85570801 194.85864258 197.59008789 C196.25265762 187.70482739 196.67479227 177.97646148 196.625 168 C196.62317719 167.23691528 196.62135437 166.47383057 196.61947632 165.68762207 C196.47592308 129.90873094 185.34201521 106.89220746 160.3125 81.3125 C157.75253764 78.82458161 155.08676917 76.55696082 152.3125 74.3125 C151.24958975 73.4145479 150.18713361 72.51605811 149.125 71.6171875 C139.76476827 63.80300871 129.87338571 57.3802177 119.3125 51.3125 C118.70003418 50.9520459 118.08756836 50.5915918 117.45654297 50.22021484 C82.47276464 29.71248272 41.3977814 21.84981374 1.25 21.9375 C-0.10688431 21.93781723 -0.10688431 21.93781723 -1.49118042 21.93814087 C-31.10929875 22.00655048 -61.22424457 25.4680186 -89.4375 34.75 Z " fill="#010101" transform="translate(576.6875,-0.3125)"/>
<path d="M0 0 C0.79838287 0.00149048 1.59676575 0.00298096 2.41934204 0.0045166 C22.35114383 0.0709733 41.5517897 2.38517789 60.875 7.3125 C62.61523438 7.73982422 62.61523438 7.73982422 64.390625 8.17578125 C102.36618876 18.19956378 144.61753902 42.90136838 165.70703125 77.1640625 C178.10954148 99.97804453 175.49867604 129.44810154 171.875 154.3125 C171.64103516 156.00004395 171.64103516 156.00004395 171.40234375 157.72167969 C167.78346182 183.59668549 162.93477097 209.31309587 154.87548828 234.2109375 C154.1101518 236.58351793 153.35390667 238.95817457 152.60498047 241.3359375 C132.8013577 304.19140466 106.503023 366.27356597 69.875 421.3125 C68.885 420.9825 67.895 420.6525 66.875 420.3125 C65.83284578 417.09129603 65.72565484 415.66621223 67.0625 412.5 C67.660625 411.448125 68.25875 410.39625 68.875 409.3125 C72.10762038 403.29461246 74.5213934 397.16262807 76.6875 390.6875 C76.97689453 389.841875 77.26628906 388.99625 77.56445312 388.125 C81.88175869 374.91912417 82.27171934 362.00980336 82.25 348.25 C82.2514502 347.3053186 82.25290039 346.36063721 82.25439453 345.3873291 C82.25225165 332.63450762 81.57756327 320.19707977 79.875 307.5625 C76.35951692 281.33071084 76.16359933 254.41055069 80.875 228.3125 C82.43666396 219.29288958 83.56262411 210.47369922 83.875 201.3125 C83.92599854 199.83547607 83.92599854 199.83547607 83.97802734 198.32861328 C84.55606682 179.43026068 84.55606682 179.43026068 79.875 161.3125 C79.33127833 159.82236281 78.78977679 158.33141444 78.25 156.83984375 C53.69400876 90.80681514 2.97742584 37.49192106 -60.125 7.3125 C-57.39368327 5.820881 -55.0674589 4.97994755 -51.9921875 4.53125 C-50.77982422 4.35142578 -50.77982422 4.35142578 -49.54296875 4.16796875 C-48.70378906 4.05066406 -47.86460937 3.93335938 -47 3.8125 C-45.82244141 3.63654297 -45.82244141 3.63654297 -44.62109375 3.45703125 C-41.79227011 3.0466091 -38.96032746 2.67544767 -36.125 2.3125 C-35.4816571 2.22811676 -34.83831421 2.14373352 -34.17547607 2.05679321 C-22.75558529 0.58098126 -11.51130745 -0.05379327 0 0 Z " fill="#336791" transform="translate(576.125,44.6875)"/>
<path d="M0 0 C7.02969235 7.54815122 10.5539413 16.5806258 12.55078125 26.55859375 C12.75276123 27.55310547 12.95474121 28.54761719 13.1628418 29.57226562 C13.79661413 32.79259489 14.3951299 36.0180559 14.98828125 39.24609375 C15.18873047 40.28040527 15.38917969 41.3147168 15.59570312 42.38037109 C18.73936062 59.04948613 19.38111234 75.44938252 19.42578125 92.37109375 C19.43195465 93.3647998 19.43812805 94.35850586 19.44448853 95.38232422 C19.51211602 112.29513847 18.21722642 128.83886021 13.11328125 145.05859375 C12.82501465 145.99324463 12.53674805 146.92789551 12.23974609 147.89086914 C9.12101774 157.5460566 5.02190145 166.76751752 0.90673828 176.02685547 C-11.23315393 202.90434434 -11.23315393 202.90434434 -19.01171875 231.24609375 C-39.25222949 232.55474746 -56.56674382 225.40292424 -72.01171875 212.24609375 C-72.7490625 211.653125 -73.48640625 211.06015625 -74.24609375 210.44921875 C-91.99699658 195.63639639 -102.93714486 172.111506 -105.01171875 149.24609375 C-105.89454797 136.19564324 -104.69928032 123.33783352 -103.29632568 110.37792969 C-101.68613478 95.48806655 -100.62490691 80.79228689 -100.69921875 65.80859375 C-100.70203857 65.04724121 -100.7048584 64.28588867 -100.70776367 63.50146484 C-100.7792668 51.10309255 -101.19663446 38.66968038 -102.39111328 26.32519531 C-103.12034376 18.59373425 -103.12034376 18.59373425 -100.30859375 15.17578125 C-97.65266662 13.21461652 -94.95314895 11.74600419 -92.01171875 10.24609375 C-90.36042969 9.28123047 -90.36042969 9.28123047 -88.67578125 8.296875 C-65.49602268 -5.09502086 -23.43233476 -20.42935594 0 0 Z " fill="#336791" transform="translate(358.01171875,249.75390625)"/>
<path d="M0 0 C0.36803783 10.00696999 -0.75208798 19.48297197 -2.375 29.3125 C-6.04615269 50.79146788 -6.04615269 50.79146788 -7.25 72.5 C-7.24395752 73.41813477 -7.23791504 74.33626953 -7.23168945 75.28222656 C-7.05155394 88.20394766 -5.97747593 101.12781412 -4.19921875 113.92578125 C-2.35723771 127.42097883 -1.67775547 140.70846199 -1.625 154.3125 C-1.61348907 155.56258347 -1.61348907 155.56258347 -1.60174561 156.83792114 C-1.52700766 166.96516309 -2.08030502 176.21089232 -5 186 C-5.23589844 186.79398193 -5.47179687 187.58796387 -5.71484375 188.40600586 C-6.33535688 190.38682266 -7.00913522 192.35074238 -7.6875 194.3125 C-7.91244141 194.96927734 -8.13738281 195.62605469 -8.36914062 196.30273438 C-8.90698173 197.87048397 -9.45255993 199.43557639 -10 201 C-10.99 201 -11.98 201 -13 201 C-13.29543701 200.36312256 -13.59087402 199.72624512 -13.89526367 199.07006836 C-19.32958977 187.41227654 -24.88259593 175.89556433 -31.3125 164.75 C-87.33959571 67.30789187 -87.33959571 67.30789187 -76.1640625 23.9765625 C-72.32065335 13.9424272 -65.05774043 7.66719155 -55.4375 3.25390625 C-37.86663433 -3.15546634 -18.30031541 -1.64149949 0 0 Z " fill="#346891" transform="translate(638,238)"/>
<path d="M0 0 C7.67315697 2.57818074 12.02241014 7.44033825 15.875 14.375 C17.88402153 20.84851381 17.80247822 25.98690462 14.97216797 32.22900391 C12.07259843 37.5111429 7.22136378 41.74024676 3 46 C1.89591797 47.12341797 1.89591797 47.12341797 0.76953125 48.26953125 C-16.90962196 65.08628674 -40.44935816 69.75153764 -64.06640625 69.38671875 C-77.21913926 68.87680874 -90.39591825 66.32949914 -102 60 C-102 59.01 -102 58.02 -102 57 C-101.11183594 56.78085937 -100.22367187 56.56171875 -99.30859375 56.3359375 C-95.73350932 55.44847961 -92.16096439 54.5516979 -88.58935547 53.65039062 C-86.80798722 53.20294908 -85.0257031 52.75914318 -83.24267578 52.31835938 C-55.77954178 45.51930216 -38.97012678 38.29535875 -21.01171875 15.4921875 C-7.67254833 -1.03284304 -7.67254833 -1.03284304 0 0 Z " fill="#356892" transform="translate(371,509)"/>
<path d="M0 0 C0.66 0.41636719 1.32 0.83273437 2 1.26171875 C26.59518141 15.32772332 60.90257576 11.15441552 87.58496094 5.91479492 C91.11307096 5.22660989 94.40324581 4.79704838 98 4.94921875 C76.74218575 27.44574022 42.33365018 36.2107 12.45706177 37.24232483 C8.67968464 37.3396176 4.90349825 37.37285715 1.125 37.38671875 C0.40765686 37.39289215 -0.30968628 37.39906555 -1.04876709 37.40542603 C-9.93128437 37.45475776 -18.57937189 37.07388303 -27 33.94921875 C-29.62312408 31.32609467 -29.29837439 30.10304404 -29.3125 26.44921875 C-29.14732314 18.33612003 -27.81775977 10.5829451 -22.07421875 4.4921875 C-15.71399874 -0.23904961 -7.44089509 -3.90937652 0 0 Z " fill="#356892" transform="translate(648,508.05078125)"/>
<path d="M0 0 C4.5 3 4.5 3 6 6 C6.62075971 9.25898849 6.48179725 11.24370699 4.68359375 14.06640625 C0.12820794 19.60012995 -3.90027694 22.48487936 -11.015625 23.37890625 C-17.97132908 23.75904357 -22.58072723 23.033736 -28.125 18.72265625 C-32.05511079 15.11186696 -35.82725865 11.61374911 -36.09765625 5.95703125 C-36.06510417 3.97135417 -36.03255208 1.98567708 -36 0 C-25.34594242 -7.10270505 -11.14602039 -5.25149037 0 0 Z " fill="#FCFDFD" transform="translate(352,258)"/>
<path d="M0 0 C1.18464844 -0.02578125 2.36929688 -0.0515625 3.58984375 -0.078125 C7.56253104 0.29724703 11.15902115 1.34652115 14.0625 4.25 C14.64429637 7.81350278 14.70261857 10.25467113 12.7109375 13.3515625 C7.1031129 19.94755003 2.04209859 23.83503345 -6.6875 24.5625 C-12.15271469 24.47090422 -16.44068063 22.40222202 -20.55078125 18.859375 C-22.8539375 16.39402465 -23.90179965 14.42850173 -24.5625 11.125 C-23.9375 8.25 -23.9375 8.25 -21.875 6.0625 C-14.70069206 1.63579935 -8.33094777 0.10854655 0 0 Z " fill="#FBFCFD" transform="translate(601.9375,247.75)"/>
</svg>
